<svg width="306" height="125" viewBox="0 0 306 125" fill="none" xmlns="http://www.w3.org/2000/svg">
<rect x="138" width="168" height="125" rx="29" fill="#6B6B6B"/>
<rect width="77" height="125" fill="#F3F3F3"/>
<line x1="77" y1="59.5" x2="138" y2="59.5" stroke="black" stroke-width="5"/>
<path d="M21.0449 59V50.4688H23.4531C24.1953 50.4688 24.8516 50.6328 25.4219 50.9609C25.9922 51.2891 26.4316 51.7559 26.7402 52.3613C27.0527 52.9668 27.2109 53.6621 27.2148 54.4473V54.9922C27.2148 55.7969 27.0586 56.502 26.7461 57.1074C26.4375 57.7129 25.9941 58.1777 25.416 58.502C24.8418 58.8262 24.1719 58.9922 23.4062 59H21.0449ZM22.1699 51.3945V58.0801H23.3535C24.2207 58.0801 24.8945 57.8105 25.375 57.2715C25.8594 56.7324 26.1016 55.9648 26.1016 54.9688V54.4707C26.1016 53.502 25.873 52.75 25.416 52.2148C24.9629 51.6758 24.3184 51.4023 23.4824 51.3945H22.1699ZM35.4766 59H34.3457V55.0566H30.0449V59H28.9199V50.4688H30.0449V54.1367H34.3457V50.4688H35.4766V59ZM43.1934 51.3945H40.4512V59H39.332V51.3945H36.5957V50.4688H43.1934V51.3945ZM49.7676 59H44.1777V58.2207L47.1309 54.9395C47.5684 54.4434 47.8691 54.041 48.0332 53.7324C48.2012 53.4199 48.2852 53.0977 48.2852 52.7656C48.2852 52.3203 48.1504 51.9551 47.8809 51.6699C47.6113 51.3848 47.252 51.2422 46.8027 51.2422C46.2637 51.2422 45.8438 51.3965 45.543 51.7051C45.2461 52.0098 45.0977 52.4355 45.0977 52.9824H44.0137C44.0137 52.1973 44.2656 51.5625 44.7695 51.0781C45.2773 50.5938 45.9551 50.3516 46.8027 50.3516C47.5957 50.3516 48.2227 50.5605 48.6836 50.9785C49.1445 51.3926 49.375 51.9453 49.375 52.6367C49.375 53.4766 48.8398 54.4766 47.7695 55.6367L45.4844 58.1152H49.7676V59ZM56.5059 59H50.916V58.2207L53.8691 54.9395C54.3066 54.4434 54.6074 54.041 54.7715 53.7324C54.9395 53.4199 55.0234 53.0977 55.0234 52.7656C55.0234 52.3203 54.8887 51.9551 54.6191 51.6699C54.3496 51.3848 53.9902 51.2422 53.541 51.2422C53.002 51.2422 52.582 51.3965 52.2812 51.7051C51.9844 52.0098 51.8359 52.4355 51.8359 52.9824H50.752C50.752 52.1973 51.0039 51.5625 51.5078 51.0781C52.0156 50.5938 52.6934 50.3516 53.541 50.3516C54.334 50.3516 54.9609 50.5605 55.4219 50.9785C55.8828 51.3926 56.1133 51.9453 56.1133 52.6367C56.1133 53.4766 55.5781 54.4766 54.5078 55.6367L52.2227 58.1152H56.5059V59Z" fill="black"/>
<path d="M154.758 53.4688L157.547 60.4297L160.336 53.4688H161.795V62H160.67V58.6777L160.775 55.0918L157.975 62H157.113L154.318 55.1094L154.43 58.6777V62H153.305V53.4688H154.758ZM164.789 62H163.705V55.6602H164.789V62ZM163.617 53.9785C163.617 53.8027 163.67 53.6543 163.775 53.5332C163.885 53.4121 164.045 53.3516 164.256 53.3516C164.467 53.3516 164.627 53.4121 164.736 53.5332C164.846 53.6543 164.9 53.8027 164.9 53.9785C164.9 54.1543 164.846 54.3008 164.736 54.418C164.627 54.5352 164.467 54.5938 164.256 54.5938C164.045 54.5938 163.885 54.5352 163.775 54.418C163.67 54.3008 163.617 54.1543 163.617 53.9785ZM169.072 61.2324C169.459 61.2324 169.797 61.1152 170.086 60.8809C170.375 60.6465 170.535 60.3535 170.566 60.002H171.592C171.572 60.3652 171.447 60.7109 171.217 61.0391C170.986 61.3672 170.678 61.6289 170.291 61.8242C169.908 62.0195 169.502 62.1172 169.072 62.1172C168.209 62.1172 167.521 61.8301 167.01 61.2559C166.502 60.6777 166.248 59.8887 166.248 58.8887V58.707C166.248 58.0898 166.361 57.541 166.588 57.0605C166.814 56.5801 167.139 56.207 167.561 55.9414C167.986 55.6758 168.488 55.543 169.066 55.543C169.777 55.543 170.367 55.7559 170.836 56.1816C171.309 56.6074 171.561 57.1602 171.592 57.8398H170.566C170.535 57.4297 170.379 57.0938 170.098 56.832C169.82 56.5664 169.477 56.4336 169.066 56.4336C168.516 56.4336 168.088 56.6328 167.783 57.0312C167.482 57.4258 167.332 57.998 167.332 58.748V58.9531C167.332 59.6836 167.482 60.2461 167.783 60.6406C168.084 61.0352 168.514 61.2324 169.072 61.2324ZM175.875 56.6328C175.711 56.6055 175.533 56.5918 175.342 56.5918C174.631 56.5918 174.148 56.8945 173.895 57.5V62H172.811V55.6602H173.865L173.883 56.3926C174.238 55.8262 174.742 55.543 175.395 55.543C175.605 55.543 175.766 55.5703 175.875 55.625V56.6328ZM176.473 58.7715C176.473 58.1504 176.594 57.5918 176.836 57.0957C177.082 56.5996 177.422 56.2168 177.855 55.9473C178.293 55.6777 178.791 55.543 179.35 55.543C180.213 55.543 180.91 55.8418 181.441 56.4395C181.977 57.0371 182.244 57.832 182.244 58.8242V58.9004C182.244 59.5176 182.125 60.0723 181.887 60.5645C181.652 61.0527 181.314 61.4336 180.873 61.707C180.436 61.9805 179.932 62.1172 179.361 62.1172C178.502 62.1172 177.805 61.8184 177.27 61.2207C176.738 60.623 176.473 59.832 176.473 58.8477V58.7715ZM177.562 58.9004C177.562 59.6035 177.725 60.168 178.049 60.5938C178.377 61.0195 178.814 61.2324 179.361 61.2324C179.912 61.2324 180.35 61.0176 180.674 60.5879C180.998 60.1543 181.16 59.5488 181.16 58.7715C181.16 58.0762 180.994 57.5137 180.662 57.084C180.334 56.6504 179.896 56.4336 179.35 56.4336C178.814 56.4336 178.383 56.6465 178.055 57.0723C177.727 57.498 177.562 58.1074 177.562 58.9004ZM186.146 61.2324C186.533 61.2324 186.871 61.1152 187.16 60.8809C187.449 60.6465 187.609 60.3535 187.641 60.002H188.666C188.646 60.3652 188.521 60.7109 188.291 61.0391C188.061 61.3672 187.752 61.6289 187.365 61.8242C186.982 62.0195 186.576 62.1172 186.146 62.1172C185.283 62.1172 184.596 61.8301 184.084 61.2559C183.576 60.6777 183.322 59.8887 183.322 58.8887V58.707C183.322 58.0898 183.436 57.541 183.662 57.0605C183.889 56.5801 184.213 56.207 184.635 55.9414C185.061 55.6758 185.562 55.543 186.141 55.543C186.852 55.543 187.441 55.7559 187.91 56.1816C188.383 56.6074 188.635 57.1602 188.666 57.8398H187.641C187.609 57.4297 187.453 57.0938 187.172 56.832C186.895 56.5664 186.551 56.4336 186.141 56.4336C185.59 56.4336 185.162 56.6328 184.857 57.0312C184.557 57.4258 184.406 57.998 184.406 58.748V58.9531C184.406 59.6836 184.557 60.2461 184.857 60.6406C185.158 61.0352 185.588 61.2324 186.146 61.2324ZM189.598 58.7715C189.598 58.1504 189.719 57.5918 189.961 57.0957C190.207 56.5996 190.547 56.2168 190.98 55.9473C191.418 55.6777 191.916 55.543 192.475 55.543C193.338 55.543 194.035 55.8418 194.566 56.4395C195.102 57.0371 195.369 57.832 195.369 58.8242V58.9004C195.369 59.5176 195.25 60.0723 195.012 60.5645C194.777 61.0527 194.439 61.4336 193.998 61.707C193.561 61.9805 193.057 62.1172 192.486 62.1172C191.627 62.1172 190.93 61.8184 190.395 61.2207C189.863 60.623 189.598 59.832 189.598 58.8477V58.7715ZM190.688 58.9004C190.688 59.6035 190.85 60.168 191.174 60.5938C191.502 61.0195 191.939 61.2324 192.486 61.2324C193.037 61.2324 193.475 61.0176 193.799 60.5879C194.123 60.1543 194.285 59.5488 194.285 58.7715C194.285 58.0762 194.119 57.5137 193.787 57.084C193.459 56.6504 193.021 56.4336 192.475 56.4336C191.939 56.4336 191.508 56.6465 191.18 57.0723C190.852 57.498 190.688 58.1074 190.688 58.9004ZM197.754 55.6602L197.789 56.457C198.273 55.8477 198.906 55.543 199.688 55.543C201.027 55.543 201.703 56.2988 201.715 57.8105V62H200.631V57.8047C200.627 57.3477 200.521 57.0098 200.314 56.791C200.111 56.5723 199.793 56.4629 199.359 56.4629C199.008 56.4629 198.699 56.5566 198.434 56.7441C198.168 56.9316 197.961 57.1777 197.812 57.4824V62H196.729V55.6602H197.754ZM204.82 54.125V55.6602H206.004V56.498H204.82V60.4297C204.82 60.6836 204.873 60.875 204.979 61.0039C205.084 61.1289 205.264 61.1914 205.518 61.1914C205.643 61.1914 205.814 61.168 206.033 61.1211V62C205.748 62.0781 205.471 62.1172 205.201 62.1172C204.717 62.1172 204.352 61.9707 204.105 61.6777C203.859 61.3848 203.736 60.9688 203.736 60.4297V56.498H202.582V55.6602H203.736V54.125H204.82ZM210.34 56.6328C210.176 56.6055 209.998 56.5918 209.807 56.5918C209.096 56.5918 208.613 56.8945 208.359 57.5V62H207.275V55.6602H208.33L208.348 56.3926C208.703 55.8262 209.207 55.543 209.859 55.543C210.07 55.543 210.23 55.5703 210.34 55.625V56.6328ZM210.938 58.7715C210.938 58.1504 211.059 57.5918 211.301 57.0957C211.547 56.5996 211.887 56.2168 212.32 55.9473C212.758 55.6777 213.256 55.543 213.814 55.543C214.678 55.543 215.375 55.8418 215.906 56.4395C216.441 57.0371 216.709 57.832 216.709 58.8242V58.9004C216.709 59.5176 216.59 60.0723 216.352 60.5645C216.117 61.0527 215.779 61.4336 215.338 61.707C214.9 61.9805 214.396 62.1172 213.826 62.1172C212.967 62.1172 212.27 61.8184 211.734 61.2207C211.203 60.623 210.938 59.832 210.938 58.8477V58.7715ZM212.027 58.9004C212.027 59.6035 212.189 60.168 212.514 60.5938C212.842 61.0195 213.279 61.2324 213.826 61.2324C214.377 61.2324 214.814 61.0176 215.139 60.5879C215.463 60.1543 215.625 59.5488 215.625 58.7715C215.625 58.0762 215.459 57.5137 215.127 57.084C214.799 56.6504 214.361 56.4336 213.814 56.4336C213.279 56.4336 212.848 56.6465 212.52 57.0723C212.191 57.498 212.027 58.1074 212.027 58.9004ZM219.246 62H218.162V53H219.246V62ZM222.164 62H221.08V53H222.164V62ZM223.617 58.7715C223.617 58.1504 223.738 57.5918 223.98 57.0957C224.227 56.5996 224.566 56.2168 225 55.9473C225.438 55.6777 225.936 55.543 226.494 55.543C227.357 55.543 228.055 55.8418 228.586 56.4395C229.121 57.0371 229.389 57.832 229.389 58.8242V58.9004C229.389 59.5176 229.27 60.0723 229.031 60.5645C228.797 61.0527 228.459 61.4336 228.018 61.707C227.58 61.9805 227.076 62.1172 226.506 62.1172C225.646 62.1172 224.949 61.8184 224.414 61.2207C223.883 60.623 223.617 59.832 223.617 58.8477V58.7715ZM224.707 58.9004C224.707 59.6035 224.869 60.168 225.193 60.5938C225.521 61.0195 225.959 61.2324 226.506 61.2324C227.057 61.2324 227.494 61.0176 227.818 60.5879C228.143 60.1543 228.305 59.5488 228.305 58.7715C228.305 58.0762 228.139 57.5137 227.807 57.084C227.479 56.6504 227.041 56.4336 226.494 56.4336C225.959 56.4336 225.527 56.6465 225.199 57.0723C224.871 57.498 224.707 58.1074 224.707 58.9004ZM233.812 56.6328C233.648 56.6055 233.471 56.5918 233.279 56.5918C232.568 56.5918 232.086 56.8945 231.832 57.5V62H230.748V55.6602H231.803L231.82 56.3926C232.176 55.8262 232.68 55.543 233.332 55.543C233.543 55.543 233.703 55.5703 233.812 55.625V56.6328ZM237.328 62.1172C236.469 62.1172 235.77 61.8359 235.23 61.2734C234.691 60.707 234.422 59.9512 234.422 59.0059V58.8066C234.422 58.1777 234.541 57.6172 234.779 57.125C235.021 56.6289 235.357 56.2422 235.787 55.9648C236.221 55.6836 236.689 55.543 237.193 55.543C238.018 55.543 238.658 55.8145 239.115 56.3574C239.572 56.9004 239.801 57.6777 239.801 58.6895V59.1406H235.506C235.521 59.7656 235.703 60.2715 236.051 60.6582C236.402 61.041 236.848 61.2324 237.387 61.2324C237.77 61.2324 238.094 61.1543 238.359 60.998C238.625 60.8418 238.857 60.6348 239.057 60.377L239.719 60.8926C239.188 61.709 238.391 62.1172 237.328 62.1172ZM237.193 56.4336C236.756 56.4336 236.389 56.5938 236.092 56.9141C235.795 57.2305 235.611 57.6758 235.541 58.25H238.717V58.168C238.686 57.6172 238.537 57.1914 238.271 56.8906C238.006 56.5859 237.646 56.4336 237.193 56.4336ZM249.029 58.0566H245.332V61.0801H249.627V62H244.207V53.4688H249.568V54.3945H245.332V57.1367H249.029V58.0566ZM253.541 58.1973C252.576 57.9199 251.873 57.5801 251.432 57.1777C250.994 56.7715 250.775 56.2715 250.775 55.6777C250.775 55.0059 251.043 54.4512 251.578 54.0137C252.117 53.5723 252.816 53.3516 253.676 53.3516C254.262 53.3516 254.783 53.4648 255.24 53.6914C255.701 53.918 256.057 54.2305 256.307 54.6289C256.561 55.0273 256.688 55.4629 256.688 55.9355H255.557C255.557 55.4199 255.393 55.0156 255.064 54.7227C254.736 54.4258 254.273 54.2773 253.676 54.2773C253.121 54.2773 252.688 54.4004 252.375 54.6465C252.066 54.8887 251.912 55.2266 251.912 55.6602C251.912 56.0078 252.059 56.3027 252.352 56.5449C252.648 56.7832 253.15 57.002 253.857 57.2012C254.568 57.4004 255.123 57.6211 255.521 57.8633C255.924 58.1016 256.221 58.3809 256.412 58.7012C256.607 59.0215 256.705 59.3984 256.705 59.832C256.705 60.5234 256.436 61.0781 255.896 61.4961C255.357 61.9102 254.637 62.1172 253.734 62.1172C253.148 62.1172 252.602 62.0059 252.094 61.7832C251.586 61.5566 251.193 61.248 250.916 60.8574C250.643 60.4668 250.506 60.0234 250.506 59.5273H251.637C251.637 60.043 251.826 60.4512 252.205 60.752C252.588 61.0488 253.098 61.1973 253.734 61.1973C254.328 61.1973 254.783 61.0762 255.1 60.834C255.416 60.5918 255.574 60.2617 255.574 59.8438C255.574 59.4258 255.428 59.1035 255.135 58.877C254.842 58.6465 254.311 58.4199 253.541 58.1973ZM259.277 58.6602V62H258.152V53.4688H261.299C262.232 53.4688 262.963 53.707 263.49 54.1836C264.021 54.6602 264.287 55.291 264.287 56.0762C264.287 56.9043 264.027 57.543 263.508 57.9922C262.992 58.4375 262.252 58.6602 261.287 58.6602H259.277ZM259.277 57.7402H261.299C261.9 57.7402 262.361 57.5996 262.682 57.3184C263.002 57.0332 263.162 56.623 263.162 56.0879C263.162 55.5801 263.002 55.1738 262.682 54.8691C262.361 54.5645 261.922 54.4062 261.363 54.3945H259.277V57.7402ZM270.615 55.6953C270.615 56.1211 270.502 56.5 270.275 56.832C270.053 57.1641 269.75 57.4238 269.367 57.6113C269.812 57.8027 270.164 58.082 270.422 58.4492C270.684 58.8164 270.814 59.2324 270.814 59.6973C270.814 60.4355 270.564 61.0234 270.064 61.4609C269.568 61.8984 268.914 62.1172 268.102 62.1172C267.281 62.1172 266.623 61.8984 266.127 61.4609C265.635 61.0195 265.389 60.4316 265.389 59.6973C265.389 59.2363 265.514 58.8203 265.764 58.4492C266.018 58.0781 266.367 57.7969 266.812 57.6055C266.434 57.418 266.135 57.1582 265.916 56.8262C265.697 56.4941 265.588 56.1172 265.588 55.6953C265.588 54.9766 265.818 54.4062 266.279 53.9844C266.74 53.5625 267.348 53.3516 268.102 53.3516C268.852 53.3516 269.457 53.5625 269.918 53.9844C270.383 54.4062 270.615 54.9766 270.615 55.6953ZM269.73 59.6738C269.73 59.1973 269.578 58.8086 269.273 58.5078C268.973 58.207 268.578 58.0566 268.09 58.0566C267.602 58.0566 267.209 58.2051 266.912 58.502C266.619 58.7988 266.473 59.1895 266.473 59.6738C266.473 60.1582 266.615 60.5391 266.9 60.8164C267.189 61.0938 267.59 61.2324 268.102 61.2324C268.609 61.2324 269.008 61.0938 269.297 60.8164C269.586 60.5352 269.73 60.1543 269.73 59.6738ZM268.102 54.2422C267.676 54.2422 267.33 54.375 267.064 54.6406C266.803 54.9023 266.672 55.2598 266.672 55.7129C266.672 56.1465 266.801 56.498 267.059 56.7676C267.32 57.0332 267.668 57.166 268.102 57.166C268.535 57.166 268.881 57.0332 269.139 56.7676C269.4 56.498 269.531 56.1465 269.531 55.7129C269.531 55.2793 269.396 54.9258 269.127 54.6523C268.857 54.3789 268.516 54.2422 268.102 54.2422ZM277.77 62H272.18V61.2207L275.133 57.9395C275.57 57.4434 275.871 57.041 276.035 56.7324C276.203 56.4199 276.287 56.0977 276.287 55.7656C276.287 55.3203 276.152 54.9551 275.883 54.6699C275.613 54.3848 275.254 54.2422 274.805 54.2422C274.266 54.2422 273.846 54.3965 273.545 54.7051C273.248 55.0098 273.1 55.4355 273.1 55.9824H272.016C272.016 55.1973 272.268 54.5625 272.771 54.0781C273.279 53.5938 273.957 53.3516 274.805 53.3516C275.598 53.3516 276.225 53.5605 276.686 53.9785C277.146 54.3926 277.377 54.9453 277.377 55.6367C277.377 56.4766 276.842 57.4766 275.771 58.6367L273.486 61.1152H277.77V62ZM283.172 53.4629V54.3828H282.973C282.129 54.3984 281.457 54.6484 280.957 55.1328C280.457 55.6172 280.168 56.2988 280.09 57.1777C280.539 56.6621 281.152 56.4043 281.93 56.4043C282.672 56.4043 283.264 56.666 283.705 57.1895C284.15 57.7129 284.373 58.3887 284.373 59.2168C284.373 60.0957 284.133 60.7988 283.652 61.3262C283.176 61.8535 282.535 62.1172 281.73 62.1172C280.914 62.1172 280.252 61.8047 279.744 61.1797C279.236 60.5508 278.982 59.7422 278.982 58.7539V58.3379C278.982 56.7676 279.316 55.5684 279.984 54.7402C280.656 53.9082 281.654 53.4824 282.979 53.4629H283.172ZM281.748 57.3066C281.377 57.3066 281.035 57.418 280.723 57.6406C280.41 57.8633 280.193 58.1426 280.072 58.4785V58.877C280.072 59.5801 280.23 60.1465 280.547 60.5762C280.863 61.0059 281.258 61.2207 281.73 61.2207C282.219 61.2207 282.602 61.041 282.879 60.6816C283.16 60.3223 283.301 59.8516 283.301 59.2695C283.301 58.6836 283.158 58.2109 282.873 57.8516C282.592 57.4883 282.217 57.3066 281.748 57.3066ZM289.91 53.4629V54.3828H289.711C288.867 54.3984 288.195 54.6484 287.695 55.1328C287.195 55.6172 286.906 56.2988 286.828 57.1777C287.277 56.6621 287.891 56.4043 288.668 56.4043C289.41 56.4043 290.002 56.666 290.443 57.1895C290.889 57.7129 291.111 58.3887 291.111 59.2168C291.111 60.0957 290.871 60.7988 290.391 61.3262C289.914 61.8535 289.273 62.1172 288.469 62.1172C287.652 62.1172 286.99 61.8047 286.482 61.1797C285.975 60.5508 285.721 59.7422 285.721 58.7539V58.3379C285.721 56.7676 286.055 55.5684 286.723 54.7402C287.395 53.9082 288.393 53.4824 289.717 53.4629H289.91ZM288.486 57.3066C288.115 57.3066 287.773 57.418 287.461 57.6406C287.148 57.8633 286.932 58.1426 286.811 58.4785V58.877C286.811 59.5801 286.969 60.1465 287.285 60.5762C287.602 61.0059 287.996 61.2207 288.469 61.2207C288.957 61.2207 289.34 61.041 289.617 60.6816C289.898 60.3223 290.039 59.8516 290.039 59.2695C290.039 58.6836 289.896 58.2109 289.611 57.8516C289.33 57.4883 288.955 57.3066 288.486 57.3066ZM180.393 72.5371C180.393 71.6543 180.51 70.8066 180.744 69.9941C180.982 69.1816 181.336 68.4434 181.805 67.7793C182.273 67.1152 182.76 66.6465 183.264 66.373L183.486 67.0879C182.916 67.5254 182.447 68.1934 182.08 69.0918C181.717 69.9902 181.518 70.9961 181.482 72.1094L181.477 72.6074C181.477 74.1152 181.752 75.4238 182.303 76.5332C182.635 77.1973 183.029 77.7168 183.486 78.0918L183.264 78.7539C182.744 78.4648 182.248 77.9805 181.775 77.3008C180.854 75.9727 180.393 74.3848 180.393 72.5371ZM189.527 72.0566H185.83V75.0801H190.125V76H184.705V67.4688H190.066V68.3945H185.83V71.1367H189.527V72.0566ZM193.482 71.9746L194.889 69.6602H196.154L194.08 72.7949L196.219 76H194.965L193.5 73.627L192.035 76H190.775L192.914 72.7949L190.84 69.6602H192.094L193.482 71.9746ZM197.332 75.4316C197.332 75.2441 197.387 75.0879 197.496 74.9629C197.609 74.8379 197.777 74.7754 198 74.7754C198.223 74.7754 198.391 74.8379 198.504 74.9629C198.621 75.0879 198.68 75.2441 198.68 75.4316C198.68 75.6113 198.621 75.7617 198.504 75.8828C198.391 76.0039 198.223 76.0645 198 76.0645C197.777 76.0645 197.609 76.0039 197.496 75.8828C197.387 75.7617 197.332 75.6113 197.332 75.4316ZM210.176 76H209.045L204.75 69.4258V76H203.619V67.4688H204.75L209.057 74.0723V67.4688H210.176V76ZM211.717 72.7715C211.717 72.1504 211.838 71.5918 212.08 71.0957C212.326 70.5996 212.666 70.2168 213.1 69.9473C213.537 69.6777 214.035 69.543 214.594 69.543C215.457 69.543 216.154 69.8418 216.686 70.4395C217.221 71.0371 217.488 71.832 217.488 72.8242V72.9004C217.488 73.5176 217.369 74.0723 217.131 74.5645C216.896 75.0527 216.559 75.4336 216.117 75.707C215.68 75.9805 215.176 76.1172 214.605 76.1172C213.746 76.1172 213.049 75.8184 212.514 75.2207C211.982 74.623 211.717 73.832 211.717 72.8477V72.7715ZM212.807 72.9004C212.807 73.6035 212.969 74.168 213.293 74.5938C213.621 75.0195 214.059 75.2324 214.605 75.2324C215.156 75.2324 215.594 75.0176 215.918 74.5879C216.242 74.1543 216.404 73.5488 216.404 72.7715C216.404 72.0762 216.238 71.5137 215.906 71.084C215.578 70.6504 215.141 70.4336 214.594 70.4336C214.059 70.4336 213.627 70.6465 213.299 71.0723C212.971 71.498 212.807 72.1074 212.807 72.9004ZM218.584 72.7773C218.584 71.8047 218.814 71.0234 219.275 70.4336C219.736 69.8398 220.34 69.543 221.086 69.543C221.828 69.543 222.416 69.7969 222.85 70.3047V67H223.934V76H222.938L222.885 75.3203C222.451 75.8516 221.848 76.1172 221.074 76.1172C220.34 76.1172 219.74 75.8164 219.275 75.2148C218.814 74.6133 218.584 73.8281 218.584 72.8594V72.7773ZM219.668 72.9004C219.668 73.6191 219.816 74.1816 220.113 74.5879C220.41 74.9941 220.82 75.1973 221.344 75.1973C222.031 75.1973 222.533 74.8887 222.85 74.2715V71.3594C222.525 70.7617 222.027 70.4629 221.355 70.4629C220.824 70.4629 220.41 70.668 220.113 71.0781C219.816 71.4883 219.668 72.0957 219.668 72.9004ZM228.252 76.1172C227.393 76.1172 226.693 75.8359 226.154 75.2734C225.615 74.707 225.346 73.9512 225.346 73.0059V72.8066C225.346 72.1777 225.465 71.6172 225.703 71.125C225.945 70.6289 226.281 70.2422 226.711 69.9648C227.145 69.6836 227.613 69.543 228.117 69.543C228.941 69.543 229.582 69.8145 230.039 70.3574C230.496 70.9004 230.725 71.6777 230.725 72.6895V73.1406H226.43C226.445 73.7656 226.627 74.2715 226.975 74.6582C227.326 75.041 227.771 75.2324 228.311 75.2324C228.693 75.2324 229.018 75.1543 229.283 74.998C229.549 74.8418 229.781 74.6348 229.98 74.377L230.643 74.8926C230.111 75.709 229.314 76.1172 228.252 76.1172ZM228.117 70.4336C227.68 70.4336 227.312 70.5938 227.016 70.9141C226.719 71.2305 226.535 71.6758 226.465 72.25H229.641V72.168C229.609 71.6172 229.461 71.1914 229.195 70.8906C228.93 70.5859 228.57 70.4336 228.117 70.4336ZM236.584 67.4688L239.373 74.4297L242.162 67.4688H243.621V76H242.496V72.6777L242.602 69.0918L239.801 76H238.939L236.145 69.1094L236.256 72.6777V76H235.131V67.4688H236.584ZM251.883 73.293C251.777 74.1953 251.443 74.8926 250.881 75.3848C250.322 75.873 249.578 76.1172 248.648 76.1172C247.641 76.1172 246.832 75.7559 246.223 75.0332C245.617 74.3105 245.314 73.3438 245.314 72.1328V71.3125C245.314 70.5195 245.455 69.8223 245.736 69.2207C246.021 68.6191 246.424 68.1582 246.943 67.8379C247.463 67.5137 248.064 67.3516 248.748 67.3516C249.654 67.3516 250.381 67.6055 250.928 68.1133C251.475 68.6172 251.793 69.3164 251.883 70.2109H250.752C250.654 69.5312 250.441 69.0391 250.113 68.7344C249.789 68.4297 249.334 68.2773 248.748 68.2773C248.029 68.2773 247.465 68.543 247.055 69.0742C246.648 69.6055 246.445 70.3613 246.445 71.3418V72.168C246.445 73.0938 246.639 73.8301 247.025 74.377C247.412 74.9238 247.953 75.1973 248.648 75.1973C249.273 75.1973 249.752 75.0566 250.084 74.7754C250.42 74.4902 250.643 73.9961 250.752 73.293H251.883ZM259.43 67.4688V73.2695C259.426 74.0742 259.172 74.7324 258.668 75.2441C258.168 75.7559 257.488 76.043 256.629 76.1055L256.33 76.1172C255.396 76.1172 254.652 75.8652 254.098 75.3613C253.543 74.8574 253.262 74.1641 253.254 73.2812V67.4688H254.367V73.2461C254.367 73.8633 254.537 74.3438 254.877 74.6875C255.217 75.0273 255.701 75.1973 256.33 75.1973C256.967 75.1973 257.453 75.0273 257.789 74.6875C258.129 74.3477 258.299 73.8691 258.299 73.252V67.4688H259.43ZM263.537 72.5957C263.537 73.4668 263.422 74.3027 263.191 75.1035C262.965 75.9004 262.615 76.6367 262.143 77.3125C261.674 77.9883 261.182 78.4688 260.666 78.7539L260.438 78.0918C261.039 77.6309 261.521 76.916 261.885 75.9473C262.252 74.9746 262.439 73.8965 262.447 72.7129V72.5254C262.447 71.7051 262.361 70.9434 262.189 70.2402C262.018 69.5332 261.777 68.9004 261.469 68.3418C261.164 67.7832 260.82 67.3477 260.438 67.0352L260.666 66.373C261.182 66.6582 261.672 67.1348 262.137 67.8027C262.605 68.4707 262.955 69.207 263.186 70.0117C263.42 70.8164 263.537 71.6777 263.537 72.5957Z" fill="black"/>
</svg>
