<svg width="276" height="395" viewBox="0 0 276 395" fill="none" xmlns="http://www.w3.org/2000/svg">
<rect width="276" height="395" rx="22" fill="white"/>
<path d="M203.646 272.354C203.451 272.158 203.451 271.842 203.646 271.646L206.828 268.464C207.024 268.269 207.34 268.269 207.536 268.464C207.731 268.66 207.731 268.976 207.536 269.172L204.707 272L207.536 274.828C207.731 275.024 207.731 275.34 207.536 275.536C207.34 275.731 207.024 275.731 206.828 275.536L203.646 272.354ZM254 272.5H204V271.5H254V272.5Z" fill="black"/>
<ellipse cx="120" cy="60.5" rx="84" ry="41.5" fill="#FA4A4A"/>
<path d="M75.1973 64H74.0723V55.4688H75.1973V64ZM78.1152 57.6602L78.1504 58.457C78.6348 57.8477 79.2676 57.543 80.0488 57.543C81.3887 57.543 82.0645 58.2988 82.0762 59.8105V64H80.9922V59.8047C80.9883 59.3477 80.8828 59.0098 80.6758 58.791C80.4727 58.5723 80.1543 58.4629 79.7207 58.4629C79.3691 58.4629 79.0605 58.5566 78.7949 58.7441C78.5293 58.9316 78.3223 59.1777 78.1738 59.4824V64H77.0898V57.6602H78.1152ZM84.8887 64H83.8047V57.6602H84.8887V64ZM83.7168 55.9785C83.7168 55.8027 83.7695 55.6543 83.875 55.5332C83.9844 55.4121 84.1445 55.3516 84.3555 55.3516C84.5664 55.3516 84.7266 55.4121 84.8359 55.5332C84.9453 55.6543 85 55.8027 85 55.9785C85 56.1543 84.9453 56.3008 84.8359 56.418C84.7266 56.5352 84.5664 56.5938 84.3555 56.5938C84.1445 56.5938 83.9844 56.5352 83.875 56.418C83.7695 56.3008 83.7168 56.1543 83.7168 55.9785ZM87.6484 63.1152H91.3574V64H86.3242V63.2031L89.8223 58.5566H86.377V57.6602H91.1816V58.4277L87.6484 63.1152ZM93.7598 64H92.6758V57.6602H93.7598V64ZM92.5879 55.9785C92.5879 55.8027 92.6406 55.6543 92.7461 55.5332C92.8555 55.4121 93.0156 55.3516 93.2266 55.3516C93.4375 55.3516 93.5977 55.4121 93.707 55.5332C93.8164 55.6543 93.8711 55.8027 93.8711 55.9785C93.8711 56.1543 93.8164 56.3008 93.707 56.418C93.5977 56.5352 93.4375 56.5938 93.2266 56.5938C93.0156 56.5938 92.8555 56.5352 92.7461 56.418C92.6406 56.3008 92.5879 56.1543 92.5879 55.9785ZM95.2129 60.7715C95.2129 60.1504 95.334 59.5918 95.5762 59.0957C95.8223 58.5996 96.1621 58.2168 96.5957 57.9473C97.0332 57.6777 97.5312 57.543 98.0898 57.543C98.9531 57.543 99.6504 57.8418 100.182 58.4395C100.717 59.0371 100.984 59.832 100.984 60.8242V60.9004C100.984 61.5176 100.865 62.0723 100.627 62.5645C100.393 63.0527 100.055 63.4336 99.6133 63.707C99.1758 63.9805 98.6719 64.1172 98.1016 64.1172C97.2422 64.1172 96.5449 63.8184 96.0098 63.2207C95.4785 62.623 95.2129 61.832 95.2129 60.8477V60.7715ZM96.3027 60.9004C96.3027 61.6035 96.4648 62.168 96.7891 62.5938C97.1172 63.0195 97.5547 63.2324 98.1016 63.2324C98.6523 63.2324 99.0898 63.0176 99.4141 62.5879C99.7383 62.1543 99.9004 61.5488 99.9004 60.7715C99.9004 60.0762 99.7344 59.5137 99.4023 59.084C99.0742 58.6504 98.6367 58.4336 98.0898 58.4336C97.5547 58.4336 97.123 58.6465 96.7949 59.0723C96.4668 59.498 96.3027 60.1074 96.3027 60.9004ZM110.676 60.9004C110.676 61.8652 110.455 62.6426 110.014 63.2324C109.572 63.8223 108.975 64.1172 108.221 64.1172C107.451 64.1172 106.846 63.873 106.404 63.3848V66.4375H105.32V57.6602H106.311L106.363 58.3633C106.805 57.8164 107.418 57.543 108.203 57.543C108.965 57.543 109.566 57.8301 110.008 58.4043C110.453 58.9785 110.676 59.7773 110.676 60.8008V60.9004ZM109.592 60.7773C109.592 60.0625 109.439 59.498 109.135 59.084C108.83 58.6699 108.412 58.4629 107.881 58.4629C107.225 58.4629 106.732 58.7539 106.404 59.3359V62.3652C106.729 62.9434 107.225 63.2324 107.893 63.2324C108.412 63.2324 108.824 63.0273 109.129 62.6172C109.438 62.2031 109.592 61.5898 109.592 60.7773ZM115.123 58.6328C114.959 58.6055 114.781 58.5918 114.59 58.5918C113.879 58.5918 113.396 58.8945 113.143 59.5V64H112.059V57.6602H113.113L113.131 58.3926C113.486 57.8262 113.99 57.543 114.643 57.543C114.854 57.543 115.014 57.5703 115.123 57.625V58.6328ZM115.721 60.7715C115.721 60.1504 115.842 59.5918 116.084 59.0957C116.33 58.5996 116.67 58.2168 117.104 57.9473C117.541 57.6777 118.039 57.543 118.598 57.543C119.461 57.543 120.158 57.8418 120.689 58.4395C121.225 59.0371 121.492 59.832 121.492 60.8242V60.9004C121.492 61.5176 121.373 62.0723 121.135 62.5645C120.9 63.0527 120.562 63.4336 120.121 63.707C119.684 63.9805 119.18 64.1172 118.609 64.1172C117.75 64.1172 117.053 63.8184 116.518 63.2207C115.986 62.623 115.721 61.832 115.721 60.8477V60.7715ZM116.811 60.9004C116.811 61.6035 116.973 62.168 117.297 62.5938C117.625 63.0195 118.062 63.2324 118.609 63.2324C119.16 63.2324 119.598 63.0176 119.922 62.5879C120.246 62.1543 120.408 61.5488 120.408 60.7715C120.408 60.0762 120.242 59.5137 119.91 59.084C119.582 58.6504 119.145 58.4336 118.598 58.4336C118.062 58.4336 117.631 58.6465 117.303 59.0723C116.975 59.498 116.811 60.1074 116.811 60.9004ZM122.594 60.7773C122.594 59.7891 122.822 59.0039 123.279 58.4219C123.736 57.8359 124.342 57.543 125.096 57.543C125.869 57.543 126.473 57.8164 126.906 58.3633L126.959 57.6602H127.949V63.8477C127.949 64.668 127.705 65.3145 127.217 65.7871C126.732 66.2598 126.08 66.4961 125.26 66.4961C124.803 66.4961 124.355 66.3984 123.918 66.2031C123.48 66.0078 123.146 65.7402 122.916 65.4004L123.479 64.75C123.943 65.3242 124.512 65.6113 125.184 65.6113C125.711 65.6113 126.121 65.4629 126.414 65.166C126.711 64.8691 126.859 64.4512 126.859 63.9121V63.3672C126.426 63.8672 125.834 64.1172 125.084 64.1172C124.342 64.1172 123.74 63.8184 123.279 63.2207C122.822 62.623 122.594 61.8086 122.594 60.7773ZM123.684 60.9004C123.684 61.6152 123.83 62.1777 124.123 62.5879C124.416 62.9941 124.826 63.1973 125.354 63.1973C126.037 63.1973 126.539 62.8867 126.859 62.2656V59.3711C126.527 58.7656 126.029 58.4629 125.365 58.4629C124.838 58.4629 124.426 58.668 124.129 59.0781C123.832 59.4883 123.684 60.0957 123.684 60.9004ZM132.654 58.6328C132.49 58.6055 132.312 58.5918 132.121 58.5918C131.41 58.5918 130.928 58.8945 130.674 59.5V64H129.59V57.6602H130.645L130.662 58.3926C131.018 57.8262 131.521 57.543 132.174 57.543C132.385 57.543 132.545 57.5703 132.654 57.625V58.6328ZM137.336 64C137.273 63.875 137.223 63.6523 137.184 63.332C136.68 63.8555 136.078 64.1172 135.379 64.1172C134.754 64.1172 134.24 63.9414 133.838 63.5898C133.439 63.2344 133.24 62.7852 133.24 62.2422C133.24 61.582 133.49 61.0703 133.99 60.707C134.494 60.3398 135.201 60.1562 136.111 60.1562H137.166V59.6582C137.166 59.2793 137.053 58.9785 136.826 58.7559C136.6 58.5293 136.266 58.416 135.824 58.416C135.438 58.416 135.113 58.5137 134.852 58.709C134.59 58.9043 134.459 59.1406 134.459 59.418H133.369C133.369 59.1016 133.48 58.7969 133.703 58.5039C133.93 58.207 134.234 57.9727 134.617 57.8008C135.004 57.6289 135.428 57.543 135.889 57.543C136.619 57.543 137.191 57.7266 137.605 58.0938C138.02 58.457 138.234 58.959 138.25 59.5996V62.5176C138.25 63.0996 138.324 63.5625 138.473 63.9062V64H137.336ZM135.537 63.1738C135.877 63.1738 136.199 63.0859 136.504 62.9102C136.809 62.7344 137.029 62.5059 137.166 62.2246V60.9238H136.316C134.988 60.9238 134.324 61.3125 134.324 62.0898C134.324 62.4297 134.438 62.6953 134.664 62.8867C134.891 63.0781 135.182 63.1738 135.537 63.1738ZM140.969 57.6602L140.998 58.3633C141.463 57.8164 142.09 57.543 142.879 57.543C143.766 57.543 144.369 57.8828 144.689 58.5625C144.9 58.2578 145.174 58.0117 145.51 57.8242C145.85 57.6367 146.25 57.543 146.711 57.543C148.102 57.543 148.809 58.2793 148.832 59.752V64H147.748V59.8164C147.748 59.3633 147.645 59.0254 147.438 58.8027C147.23 58.5762 146.883 58.4629 146.395 58.4629C145.992 58.4629 145.658 58.584 145.393 58.8262C145.127 59.0645 144.973 59.3867 144.93 59.793V64H143.84V59.8457C143.84 58.9238 143.389 58.4629 142.486 58.4629C141.775 58.4629 141.289 58.7656 141.027 59.3711V64H139.943V57.6602H140.969ZM151.492 57.6602L151.521 58.3633C151.986 57.8164 152.613 57.543 153.402 57.543C154.289 57.543 154.893 57.8828 155.213 58.5625C155.424 58.2578 155.697 58.0117 156.033 57.8242C156.373 57.6367 156.773 57.543 157.234 57.543C158.625 57.543 159.332 58.2793 159.355 59.752V64H158.271V59.8164C158.271 59.3633 158.168 59.0254 157.961 58.8027C157.754 58.5762 157.406 58.4629 156.918 58.4629C156.516 58.4629 156.182 58.584 155.916 58.8262C155.65 59.0645 155.496 59.3867 155.453 59.793V64H154.363V59.8457C154.363 58.9238 153.912 58.4629 153.01 58.4629C152.299 58.4629 151.812 58.7656 151.551 59.3711V64H150.467V57.6602H151.492ZM164.91 64C164.848 63.875 164.797 63.6523 164.758 63.332C164.254 63.8555 163.652 64.1172 162.953 64.1172C162.328 64.1172 161.814 63.9414 161.412 63.5898C161.014 63.2344 160.814 62.7852 160.814 62.2422C160.814 61.582 161.064 61.0703 161.564 60.707C162.068 60.3398 162.775 60.1562 163.686 60.1562H164.74V59.6582C164.74 59.2793 164.627 58.9785 164.4 58.7559C164.174 58.5293 163.84 58.416 163.398 58.416C163.012 58.416 162.688 58.5137 162.426 58.709C162.164 58.9043 162.033 59.1406 162.033 59.418H160.943C160.943 59.1016 161.055 58.7969 161.277 58.5039C161.504 58.207 161.809 57.9727 162.191 57.8008C162.578 57.6289 163.002 57.543 163.463 57.543C164.193 57.543 164.766 57.7266 165.18 58.0938C165.594 58.457 165.809 58.959 165.824 59.5996V62.5176C165.824 63.0996 165.898 63.5625 166.047 63.9062V64H164.91ZM163.111 63.1738C163.451 63.1738 163.773 63.0859 164.078 62.9102C164.383 62.7344 164.604 62.5059 164.74 62.2246V60.9238H163.891C162.562 60.9238 161.898 61.3125 161.898 62.0898C161.898 62.4297 162.012 62.6953 162.238 62.8867C162.465 63.0781 162.756 63.1738 163.111 63.1738Z" fill="black"/>
<rect x="36" y="238" width="168" height="60" fill="#69C061"/>
<rect x="36" y="128" width="168" height="60" fill="#69C061"/>
<path d="M86.8145 160.506L89.252 153.469H90.4824L87.3184 162H86.3223L83.1641 153.469H84.3887L86.8145 160.506ZM90.9043 158.771C90.9043 158.15 91.0254 157.592 91.2676 157.096C91.5137 156.6 91.8535 156.217 92.2871 155.947C92.7246 155.678 93.2227 155.543 93.7812 155.543C94.6445 155.543 95.3418 155.842 95.873 156.439C96.4082 157.037 96.6758 157.832 96.6758 158.824V158.9C96.6758 159.518 96.5566 160.072 96.3184 160.564C96.084 161.053 95.7461 161.434 95.3047 161.707C94.8672 161.98 94.3633 162.117 93.793 162.117C92.9336 162.117 92.2363 161.818 91.7012 161.221C91.1699 160.623 90.9043 159.832 90.9043 158.848V158.771ZM91.9941 158.9C91.9941 159.604 92.1562 160.168 92.4805 160.594C92.8086 161.02 93.2461 161.232 93.793 161.232C94.3438 161.232 94.7812 161.018 95.1055 160.588C95.4297 160.154 95.5918 159.549 95.5918 158.771C95.5918 158.076 95.4258 157.514 95.0938 157.084C94.7656 156.65 94.3281 156.434 93.7812 156.434C93.2461 156.434 92.8145 156.646 92.4863 157.072C92.1582 157.498 91.9941 158.107 91.9941 158.9ZM99.2129 162H98.1289V155.66H99.2129V162ZM98.041 153.979C98.041 153.803 98.0938 153.654 98.1992 153.533C98.3086 153.412 98.4688 153.352 98.6797 153.352C98.8906 153.352 99.0508 153.412 99.1602 153.533C99.2695 153.654 99.3242 153.803 99.3242 153.979C99.3242 154.154 99.2695 154.301 99.1602 154.418C99.0508 154.535 98.8906 154.594 98.6797 154.594C98.4688 154.594 98.3086 154.535 98.1992 154.418C98.0938 154.301 98.041 154.154 98.041 153.979ZM100.689 158.777C100.689 157.805 100.92 157.023 101.381 156.434C101.842 155.84 102.445 155.543 103.191 155.543C103.934 155.543 104.521 155.797 104.955 156.305V153H106.039V162H105.043L104.99 161.32C104.557 161.852 103.953 162.117 103.18 162.117C102.445 162.117 101.846 161.816 101.381 161.215C100.92 160.613 100.689 159.828 100.689 158.859V158.777ZM101.773 158.9C101.773 159.619 101.922 160.182 102.219 160.588C102.516 160.994 102.926 161.197 103.449 161.197C104.137 161.197 104.639 160.889 104.955 160.271V157.359C104.631 156.762 104.133 156.463 103.461 156.463C102.93 156.463 102.516 156.668 102.219 157.078C101.922 157.488 101.773 158.096 101.773 158.9ZM114.395 160.318C114.395 160.025 114.283 159.799 114.061 159.639C113.842 159.475 113.457 159.334 112.906 159.217C112.359 159.1 111.924 158.959 111.6 158.795C111.279 158.631 111.041 158.436 110.885 158.209C110.732 157.982 110.656 157.713 110.656 157.4C110.656 156.881 110.875 156.441 111.312 156.082C111.754 155.723 112.316 155.543 113 155.543C113.719 155.543 114.301 155.729 114.746 156.1C115.195 156.471 115.42 156.945 115.42 157.523H114.33C114.33 157.227 114.203 156.971 113.949 156.756C113.699 156.541 113.383 156.434 113 156.434C112.605 156.434 112.297 156.52 112.074 156.691C111.852 156.863 111.74 157.088 111.74 157.365C111.74 157.627 111.844 157.824 112.051 157.957C112.258 158.09 112.631 158.217 113.17 158.338C113.713 158.459 114.152 158.604 114.488 158.771C114.824 158.939 115.072 159.143 115.232 159.381C115.396 159.615 115.479 159.902 115.479 160.242C115.479 160.809 115.252 161.264 114.799 161.607C114.346 161.947 113.758 162.117 113.035 162.117C112.527 162.117 112.078 162.027 111.688 161.848C111.297 161.668 110.99 161.418 110.768 161.098C110.549 160.773 110.439 160.424 110.439 160.049H111.523C111.543 160.412 111.688 160.701 111.957 160.916C112.23 161.127 112.59 161.232 113.035 161.232C113.445 161.232 113.773 161.15 114.02 160.986C114.27 160.818 114.395 160.596 114.395 160.318ZM119.521 162.117C118.662 162.117 117.963 161.836 117.424 161.273C116.885 160.707 116.615 159.951 116.615 159.006V158.807C116.615 158.178 116.734 157.617 116.973 157.125C117.215 156.629 117.551 156.242 117.98 155.965C118.414 155.684 118.883 155.543 119.387 155.543C120.211 155.543 120.852 155.814 121.309 156.357C121.766 156.9 121.994 157.678 121.994 158.689V159.141H117.699C117.715 159.766 117.896 160.271 118.244 160.658C118.596 161.041 119.041 161.232 119.58 161.232C119.963 161.232 120.287 161.154 120.553 160.998C120.818 160.842 121.051 160.635 121.25 160.377L121.912 160.893C121.381 161.709 120.584 162.117 119.521 162.117ZM119.387 156.434C118.949 156.434 118.582 156.594 118.285 156.914C117.988 157.23 117.805 157.676 117.734 158.25H120.91V158.168C120.879 157.617 120.73 157.191 120.465 156.891C120.199 156.586 119.84 156.434 119.387 156.434ZM124.725 154.125V155.66H125.908V156.498H124.725V160.43C124.725 160.684 124.777 160.875 124.883 161.004C124.988 161.129 125.168 161.191 125.422 161.191C125.547 161.191 125.719 161.168 125.938 161.121V162C125.652 162.078 125.375 162.117 125.105 162.117C124.621 162.117 124.256 161.971 124.01 161.678C123.764 161.385 123.641 160.969 123.641 160.43V156.498H122.486V155.66H123.641V154.125H124.725ZM131.094 161.373C130.672 161.869 130.053 162.117 129.236 162.117C128.561 162.117 128.045 161.922 127.689 161.531C127.338 161.137 127.16 160.555 127.156 159.785V155.66H128.24V159.756C128.24 160.717 128.631 161.197 129.412 161.197C130.24 161.197 130.791 160.889 131.064 160.271V155.66H132.148V162H131.117L131.094 161.373ZM139.156 158.9C139.156 159.865 138.936 160.643 138.494 161.232C138.053 161.822 137.455 162.117 136.701 162.117C135.932 162.117 135.326 161.873 134.885 161.385V164.438H133.801V155.66H134.791L134.844 156.363C135.285 155.816 135.898 155.543 136.684 155.543C137.445 155.543 138.047 155.83 138.488 156.404C138.934 156.979 139.156 157.777 139.156 158.801V158.9ZM138.072 158.777C138.072 158.062 137.92 157.498 137.615 157.084C137.311 156.67 136.893 156.463 136.361 156.463C135.705 156.463 135.213 156.754 134.885 157.336V160.365C135.209 160.943 135.705 161.232 136.373 161.232C136.893 161.232 137.305 161.027 137.609 160.617C137.918 160.203 138.072 159.59 138.072 158.777ZM140.498 158.537C140.498 157.654 140.615 156.807 140.85 155.994C141.088 155.182 141.441 154.443 141.91 153.779C142.379 153.115 142.865 152.646 143.369 152.373L143.592 153.088C143.021 153.525 142.553 154.193 142.186 155.092C141.822 155.99 141.623 156.996 141.588 158.109L141.582 158.607C141.582 160.115 141.857 161.424 142.408 162.533C142.74 163.197 143.135 163.717 143.592 164.092L143.369 164.754C142.85 164.465 142.354 163.98 141.881 163.301C140.959 161.973 140.498 160.385 140.498 158.537ZM147.143 158.596C147.143 159.467 147.027 160.303 146.797 161.104C146.57 161.9 146.221 162.637 145.748 163.312C145.279 163.988 144.787 164.469 144.271 164.754L144.043 164.092C144.645 163.631 145.127 162.916 145.49 161.947C145.857 160.975 146.045 159.896 146.053 158.713V158.525C146.053 157.705 145.967 156.943 145.795 156.24C145.623 155.533 145.383 154.9 145.074 154.342C144.77 153.783 144.426 153.348 144.043 153.035L144.271 152.373C144.787 152.658 145.277 153.135 145.742 153.803C146.211 154.471 146.561 155.207 146.791 156.012C147.025 156.816 147.143 157.678 147.143 158.596Z" fill="black"/>
<path d="M89.8145 270.506L92.252 263.469H93.4824L90.3184 272H89.3223L86.1641 263.469H87.3887L89.8145 270.506ZM93.9043 268.771C93.9043 268.15 94.0254 267.592 94.2676 267.096C94.5137 266.6 94.8535 266.217 95.2871 265.947C95.7246 265.678 96.2227 265.543 96.7812 265.543C97.6445 265.543 98.3418 265.842 98.873 266.439C99.4082 267.037 99.6758 267.832 99.6758 268.824V268.9C99.6758 269.518 99.5566 270.072 99.3184 270.564C99.084 271.053 98.7461 271.434 98.3047 271.707C97.8672 271.98 97.3633 272.117 96.793 272.117C95.9336 272.117 95.2363 271.818 94.7012 271.221C94.1699 270.623 93.9043 269.832 93.9043 268.848V268.771ZM94.9941 268.9C94.9941 269.604 95.1562 270.168 95.4805 270.594C95.8086 271.02 96.2461 271.232 96.793 271.232C97.3438 271.232 97.7812 271.018 98.1055 270.588C98.4297 270.154 98.5918 269.549 98.5918 268.771C98.5918 268.076 98.4258 267.514 98.0938 267.084C97.7656 266.65 97.3281 266.434 96.7812 266.434C96.2461 266.434 95.8145 266.646 95.4863 267.072C95.1582 267.498 94.9941 268.107 94.9941 268.9ZM102.213 272H101.129V265.66H102.213V272ZM101.041 263.979C101.041 263.803 101.094 263.654 101.199 263.533C101.309 263.412 101.469 263.352 101.68 263.352C101.891 263.352 102.051 263.412 102.16 263.533C102.27 263.654 102.324 263.803 102.324 263.979C102.324 264.154 102.27 264.301 102.16 264.418C102.051 264.535 101.891 264.594 101.68 264.594C101.469 264.594 101.309 264.535 101.199 264.418C101.094 264.301 101.041 264.154 101.041 263.979ZM103.689 268.777C103.689 267.805 103.92 267.023 104.381 266.434C104.842 265.84 105.445 265.543 106.191 265.543C106.934 265.543 107.521 265.797 107.955 266.305V263H109.039V272H108.043L107.99 271.32C107.557 271.852 106.953 272.117 106.18 272.117C105.445 272.117 104.846 271.816 104.381 271.215C103.92 270.613 103.689 269.828 103.689 268.859V268.777ZM104.773 268.9C104.773 269.619 104.922 270.182 105.219 270.588C105.516 270.994 105.926 271.197 106.449 271.197C107.137 271.197 107.639 270.889 107.955 270.271V267.359C107.631 266.762 107.133 266.463 106.461 266.463C105.93 266.463 105.516 266.668 105.219 267.078C104.922 267.488 104.773 268.096 104.773 268.9ZM114.881 272H113.797V263H114.881V272ZM116.334 268.771C116.334 268.15 116.455 267.592 116.697 267.096C116.943 266.6 117.283 266.217 117.717 265.947C118.154 265.678 118.652 265.543 119.211 265.543C120.074 265.543 120.771 265.842 121.303 266.439C121.838 267.037 122.105 267.832 122.105 268.824V268.9C122.105 269.518 121.986 270.072 121.748 270.564C121.514 271.053 121.176 271.434 120.734 271.707C120.297 271.98 119.793 272.117 119.223 272.117C118.363 272.117 117.666 271.818 117.131 271.221C116.6 270.623 116.334 269.832 116.334 268.848V268.771ZM117.424 268.9C117.424 269.604 117.586 270.168 117.91 270.594C118.238 271.02 118.676 271.232 119.223 271.232C119.773 271.232 120.211 271.018 120.535 270.588C120.859 270.154 121.021 269.549 121.021 268.771C121.021 268.076 120.855 267.514 120.523 267.084C120.195 266.65 119.758 266.434 119.211 266.434C118.676 266.434 118.244 266.646 117.916 267.072C117.588 267.498 117.424 268.107 117.424 268.9ZM123.178 268.771C123.178 268.15 123.299 267.592 123.541 267.096C123.787 266.6 124.127 266.217 124.561 265.947C124.998 265.678 125.496 265.543 126.055 265.543C126.918 265.543 127.615 265.842 128.146 266.439C128.682 267.037 128.949 267.832 128.949 268.824V268.9C128.949 269.518 128.83 270.072 128.592 270.564C128.357 271.053 128.02 271.434 127.578 271.707C127.141 271.98 126.637 272.117 126.066 272.117C125.207 272.117 124.51 271.818 123.975 271.221C123.443 270.623 123.178 269.832 123.178 268.848V268.771ZM124.268 268.9C124.268 269.604 124.43 270.168 124.754 270.594C125.082 271.02 125.52 271.232 126.066 271.232C126.617 271.232 127.055 271.018 127.379 270.588C127.703 270.154 127.865 269.549 127.865 268.771C127.865 268.076 127.699 267.514 127.367 267.084C127.039 266.65 126.602 266.434 126.055 266.434C125.52 266.434 125.088 266.646 124.76 267.072C124.432 267.498 124.268 268.107 124.268 268.9ZM135.664 268.9C135.664 269.865 135.443 270.643 135.002 271.232C134.561 271.822 133.963 272.117 133.209 272.117C132.439 272.117 131.834 271.873 131.393 271.385V274.438H130.309V265.66H131.299L131.352 266.363C131.793 265.816 132.406 265.543 133.191 265.543C133.953 265.543 134.555 265.83 134.996 266.404C135.441 266.979 135.664 267.777 135.664 268.801V268.9ZM134.58 268.777C134.58 268.062 134.428 267.498 134.123 267.084C133.818 266.67 133.4 266.463 132.869 266.463C132.213 266.463 131.721 266.754 131.393 267.336V270.365C131.717 270.943 132.213 271.232 132.881 271.232C133.4 271.232 133.812 271.027 134.117 270.617C134.426 270.203 134.58 269.59 134.58 268.777ZM137.006 268.537C137.006 267.654 137.123 266.807 137.357 265.994C137.596 265.182 137.949 264.443 138.418 263.779C138.887 263.115 139.373 262.646 139.877 262.373L140.1 263.088C139.529 263.525 139.061 264.193 138.693 265.092C138.33 265.99 138.131 266.996 138.096 268.109L138.09 268.607C138.09 270.115 138.365 271.424 138.916 272.533C139.248 273.197 139.643 273.717 140.1 274.092L139.877 274.754C139.357 274.465 138.861 273.98 138.389 273.301C137.467 271.973 137.006 270.385 137.006 268.537ZM143.65 268.596C143.65 269.467 143.535 270.303 143.305 271.104C143.078 271.9 142.729 272.637 142.256 273.312C141.787 273.988 141.295 274.469 140.779 274.754L140.551 274.092C141.152 273.631 141.635 272.916 141.998 271.947C142.365 270.975 142.553 269.896 142.561 268.713V268.525C142.561 267.705 142.475 266.943 142.303 266.24C142.131 265.533 141.891 264.9 141.582 264.342C141.277 263.783 140.934 263.348 140.551 263.035L140.779 262.373C141.295 262.658 141.785 263.135 142.25 263.803C142.719 264.471 143.068 265.207 143.299 266.012C143.533 266.816 143.65 267.678 143.65 268.596Z" fill="black"/>
<line x1="120.5" y1="102" x2="120.5" y2="128" stroke="black"/>
<path d="M119.646 128.354C119.842 128.549 120.158 128.549 120.354 128.354L123.536 125.172C123.731 124.976 123.731 124.66 123.536 124.464C123.34 124.269 123.024 124.269 122.828 124.464L120 127.293L117.172 124.464C116.976 124.269 116.66 124.269 116.464 124.464C116.269 124.66 116.269 124.976 116.464 125.172L119.646 128.354ZM119.5 102L119.5 128L120.5 128L120.5 102L119.5 102Z" fill="black"/>
<path d="M119.646 238.354C119.842 238.549 120.158 238.549 120.354 238.354L123.536 235.172C123.731 234.976 123.731 234.66 123.536 234.464C123.34 234.269 123.024 234.269 122.828 234.464L120 237.293L117.172 234.464C116.976 234.269 116.66 234.269 116.464 234.464C116.269 234.66 116.269 234.976 116.464 235.172L119.646 238.354ZM119.5 188L119.5 238L120.5 238L120.5 188L119.5 188Z" fill="black"/>
<path d="M254 272L254 337.5" stroke="black"/>
<line x1="254" y1="337.5" x2="122" y2="337.5" stroke="black"/>
<line x1="122.5" y1="298" x2="122.5" y2="337" stroke="black"/>
</svg>
