<svg width="401" height="475" viewBox="0 0 401 475" fill="none" xmlns="http://www.w3.org/2000/svg">
<rect width="401" height="475" rx="22" fill="white"/>
<path d="M119.5 229L196 272L119.5 315L43 272L119.5 229Z" fill="#F87212"/>
<path d="M61.8145 274.506L64.252 267.469H65.4824L62.3184 276H61.3223L58.1641 267.469H59.3887L61.8145 274.506ZM70.1055 276C70.043 275.875 69.9922 275.652 69.9531 275.332C69.4492 275.855 68.8477 276.117 68.1484 276.117C67.5234 276.117 67.0098 275.941 66.6074 275.59C66.209 275.234 66.0098 274.785 66.0098 274.242C66.0098 273.582 66.2598 273.07 66.7598 272.707C67.2637 272.34 67.9707 272.156 68.8809 272.156H69.9355V271.658C69.9355 271.279 69.8223 270.979 69.5957 270.756C69.3691 270.529 69.0352 270.416 68.5938 270.416C68.207 270.416 67.8828 270.514 67.6211 270.709C67.3594 270.904 67.2285 271.141 67.2285 271.418H66.1387C66.1387 271.102 66.25 270.797 66.4727 270.504C66.6992 270.207 67.0039 269.973 67.3867 269.801C67.7734 269.629 68.1973 269.543 68.6582 269.543C69.3887 269.543 69.9609 269.727 70.375 270.094C70.7891 270.457 71.0039 270.959 71.0195 271.6V274.518C71.0195 275.1 71.0938 275.562 71.2422 275.906V276H70.1055ZM68.3066 275.174C68.6465 275.174 68.9688 275.086 69.2734 274.91C69.5781 274.734 69.7988 274.506 69.9355 274.225V272.924H69.0859C67.7578 272.924 67.0938 273.312 67.0938 274.09C67.0938 274.43 67.207 274.695 67.4336 274.887C67.6602 275.078 67.9512 275.174 68.3066 275.174ZM73.8965 276H72.8125V267H73.8965V276ZM75.3496 272.771C75.3496 272.15 75.4707 271.592 75.7129 271.096C75.959 270.6 76.2988 270.217 76.7324 269.947C77.1699 269.678 77.668 269.543 78.2266 269.543C79.0898 269.543 79.7871 269.842 80.3184 270.439C80.8535 271.037 81.1211 271.832 81.1211 272.824V272.9C81.1211 273.518 81.002 274.072 80.7637 274.564C80.5293 275.053 80.1914 275.434 79.75 275.707C79.3125 275.98 78.8086 276.117 78.2383 276.117C77.3789 276.117 76.6816 275.818 76.1465 275.221C75.6152 274.623 75.3496 273.832 75.3496 272.848V272.771ZM76.4395 272.9C76.4395 273.604 76.6016 274.168 76.9258 274.594C77.2539 275.02 77.6914 275.232 78.2383 275.232C78.7891 275.232 79.2266 275.018 79.5508 274.588C79.875 274.154 80.0371 273.549 80.0371 272.771C80.0371 272.076 79.8711 271.514 79.5391 271.084C79.2109 270.65 78.7734 270.434 78.2266 270.434C77.6914 270.434 77.2598 270.646 76.9316 271.072C76.6035 271.498 76.4395 272.107 76.4395 272.9ZM85.5449 270.633C85.3809 270.605 85.2031 270.592 85.0117 270.592C84.3008 270.592 83.8184 270.895 83.5645 271.5V276H82.4805V269.66H83.5352L83.5527 270.393C83.9082 269.826 84.4121 269.543 85.0645 269.543C85.2754 269.543 85.4355 269.57 85.5449 269.625V270.633ZM87.7246 276H86.6406V269.66H87.7246V276ZM86.5527 267.979C86.5527 267.803 86.6055 267.654 86.7109 267.533C86.8203 267.412 86.9805 267.352 87.1914 267.352C87.4023 267.352 87.5625 267.412 87.6719 267.533C87.7812 267.654 87.8359 267.803 87.8359 267.979C87.8359 268.154 87.7812 268.301 87.6719 268.418C87.5625 268.535 87.4023 268.594 87.1914 268.594C86.9805 268.594 86.8203 268.535 86.7109 268.418C86.6055 268.301 86.5527 268.154 86.5527 267.979ZM94.5332 274.529L96.1035 269.66H97.2109L94.9375 276H94.1113L91.8145 269.66H92.9219L94.5332 274.529ZM102.074 276C102.012 275.875 101.961 275.652 101.922 275.332C101.418 275.855 100.816 276.117 100.117 276.117C99.4922 276.117 98.9785 275.941 98.5762 275.59C98.1777 275.234 97.9785 274.785 97.9785 274.242C97.9785 273.582 98.2285 273.07 98.7285 272.707C99.2324 272.34 99.9395 272.156 100.85 272.156H101.904V271.658C101.904 271.279 101.791 270.979 101.564 270.756C101.338 270.529 101.004 270.416 100.562 270.416C100.176 270.416 99.8516 270.514 99.5898 270.709C99.3281 270.904 99.1973 271.141 99.1973 271.418H98.1074C98.1074 271.102 98.2188 270.797 98.4414 270.504C98.668 270.207 98.9727 269.973 99.3555 269.801C99.7422 269.629 100.166 269.543 100.627 269.543C101.357 269.543 101.93 269.727 102.344 270.094C102.758 270.457 102.973 270.959 102.988 271.6V274.518C102.988 275.1 103.062 275.562 103.211 275.906V276H102.074ZM100.275 275.174C100.615 275.174 100.938 275.086 101.242 274.91C101.547 274.734 101.768 274.506 101.904 274.225V272.924H101.055C99.7266 272.924 99.0625 273.312 99.0625 274.09C99.0625 274.43 99.1758 274.695 99.4023 274.887C99.6289 275.078 99.9199 275.174 100.275 275.174ZM107.752 270.633C107.588 270.605 107.41 270.592 107.219 270.592C106.508 270.592 106.025 270.895 105.771 271.5V276H104.688V269.66H105.742L105.76 270.393C106.115 269.826 106.619 269.543 107.271 269.543C107.482 269.543 107.643 269.57 107.752 269.625V270.633ZM109.932 276H108.848V269.66H109.932V276ZM108.76 267.979C108.76 267.803 108.812 267.654 108.918 267.533C109.027 267.412 109.188 267.352 109.398 267.352C109.609 267.352 109.77 267.412 109.879 267.533C109.988 267.654 110.043 267.803 110.043 267.979C110.043 268.154 109.988 268.301 109.879 268.418C109.77 268.535 109.609 268.594 109.398 268.594C109.188 268.594 109.027 268.535 108.918 268.418C108.812 268.301 108.76 268.154 108.76 267.979ZM115.586 276C115.523 275.875 115.473 275.652 115.434 275.332C114.93 275.855 114.328 276.117 113.629 276.117C113.004 276.117 112.49 275.941 112.088 275.59C111.689 275.234 111.49 274.785 111.49 274.242C111.49 273.582 111.74 273.07 112.24 272.707C112.744 272.34 113.451 272.156 114.361 272.156H115.416V271.658C115.416 271.279 115.303 270.979 115.076 270.756C114.85 270.529 114.516 270.416 114.074 270.416C113.688 270.416 113.363 270.514 113.102 270.709C112.84 270.904 112.709 271.141 112.709 271.418H111.619C111.619 271.102 111.73 270.797 111.953 270.504C112.18 270.207 112.484 269.973 112.867 269.801C113.254 269.629 113.678 269.543 114.139 269.543C114.869 269.543 115.441 269.727 115.855 270.094C116.27 270.457 116.484 270.959 116.5 271.6V274.518C116.5 275.1 116.574 275.562 116.723 275.906V276H115.586ZM113.787 275.174C114.127 275.174 114.449 275.086 114.754 274.91C115.059 274.734 115.279 274.506 115.416 274.225V272.924H114.566C113.238 272.924 112.574 273.312 112.574 274.09C112.574 274.43 112.688 274.695 112.914 274.887C113.141 275.078 113.432 275.174 113.787 275.174ZM123.566 272.9C123.566 273.869 123.344 274.648 122.898 275.238C122.453 275.824 121.855 276.117 121.105 276.117C120.305 276.117 119.686 275.834 119.248 275.268L119.195 276H118.199V267H119.283V270.357C119.721 269.814 120.324 269.543 121.094 269.543C121.863 269.543 122.467 269.834 122.904 270.416C123.346 270.998 123.566 271.795 123.566 272.807V272.9ZM122.482 272.777C122.482 272.039 122.34 271.469 122.055 271.066C121.77 270.664 121.359 270.463 120.824 270.463C120.109 270.463 119.596 270.795 119.283 271.459V274.201C119.615 274.865 120.133 275.197 120.836 275.197C121.355 275.197 121.76 274.996 122.049 274.594C122.338 274.191 122.482 273.586 122.482 272.777ZM126.115 276H125.031V269.66H126.115V276ZM124.943 267.979C124.943 267.803 124.996 267.654 125.102 267.533C125.211 267.412 125.371 267.352 125.582 267.352C125.793 267.352 125.953 267.412 126.062 267.533C126.172 267.654 126.227 267.803 126.227 267.979C126.227 268.154 126.172 268.301 126.062 268.418C125.953 268.535 125.793 268.594 125.582 268.594C125.371 268.594 125.211 268.535 125.102 268.418C124.996 268.301 124.943 268.154 124.943 267.979ZM129.033 276H127.949V267H129.033V276ZM131.951 276H130.867V269.66H131.951V276ZM130.779 267.979C130.779 267.803 130.832 267.654 130.938 267.533C131.047 267.412 131.207 267.352 131.418 267.352C131.629 267.352 131.789 267.412 131.898 267.533C132.008 267.654 132.062 267.803 132.062 267.979C132.062 268.154 132.008 268.301 131.898 268.418C131.789 268.535 131.629 268.594 131.418 268.594C131.207 268.594 131.047 268.535 130.938 268.418C130.832 268.301 130.779 268.154 130.779 267.979ZM139.211 275.232C139.598 275.232 139.936 275.115 140.225 274.881C140.514 274.646 140.674 274.354 140.705 274.002H141.73C141.711 274.365 141.586 274.711 141.355 275.039C141.125 275.367 140.816 275.629 140.43 275.824C140.047 276.02 139.641 276.117 139.211 276.117C138.348 276.117 137.66 275.83 137.148 275.256C136.641 274.678 136.387 273.889 136.387 272.889V272.707C136.387 272.09 136.5 271.541 136.727 271.061C136.953 270.58 137.277 270.207 137.699 269.941C138.125 269.676 138.627 269.543 139.205 269.543C139.916 269.543 140.506 269.756 140.975 270.182C141.447 270.607 141.699 271.16 141.73 271.84H140.705C140.674 271.43 140.518 271.094 140.236 270.832C139.959 270.566 139.615 270.434 139.205 270.434C138.654 270.434 138.227 270.633 137.922 271.031C137.621 271.426 137.471 271.998 137.471 272.748V272.953C137.471 273.684 137.621 274.246 137.922 274.641C138.223 275.035 138.652 275.232 139.211 275.232ZM142.662 272.771C142.662 272.15 142.783 271.592 143.025 271.096C143.271 270.6 143.611 270.217 144.045 269.947C144.482 269.678 144.98 269.543 145.539 269.543C146.402 269.543 147.1 269.842 147.631 270.439C148.166 271.037 148.434 271.832 148.434 272.824V272.9C148.434 273.518 148.314 274.072 148.076 274.564C147.842 275.053 147.504 275.434 147.062 275.707C146.625 275.98 146.121 276.117 145.551 276.117C144.691 276.117 143.994 275.818 143.459 275.221C142.928 274.623 142.662 273.832 142.662 272.848V272.771ZM143.752 272.9C143.752 273.604 143.914 274.168 144.238 274.594C144.566 275.02 145.004 275.232 145.551 275.232C146.102 275.232 146.539 275.018 146.863 274.588C147.188 274.154 147.35 273.549 147.35 272.771C147.35 272.076 147.184 271.514 146.852 271.084C146.523 270.65 146.086 270.434 145.539 270.434C145.004 270.434 144.572 270.646 144.244 271.072C143.916 271.498 143.752 272.107 143.752 272.9ZM150.818 269.66L150.854 270.457C151.338 269.848 151.971 269.543 152.752 269.543C154.092 269.543 154.768 270.299 154.779 271.811V276H153.695V271.805C153.691 271.348 153.586 271.01 153.379 270.791C153.176 270.572 152.857 270.463 152.424 270.463C152.072 270.463 151.764 270.557 151.498 270.744C151.232 270.932 151.025 271.178 150.877 271.482V276H149.793V269.66H150.818ZM156.947 276V270.498H155.945V269.66H156.947V269.01C156.947 268.33 157.129 267.805 157.492 267.434C157.855 267.062 158.369 266.877 159.033 266.877C159.283 266.877 159.531 266.91 159.777 266.977L159.719 267.855C159.535 267.82 159.34 267.803 159.133 267.803C158.781 267.803 158.51 267.906 158.318 268.113C158.127 268.316 158.031 268.609 158.031 268.992V269.66H159.385V270.498H158.031V276H156.947ZM160.299 272.771C160.299 272.15 160.42 271.592 160.662 271.096C160.908 270.6 161.248 270.217 161.682 269.947C162.119 269.678 162.617 269.543 163.176 269.543C164.039 269.543 164.736 269.842 165.268 270.439C165.803 271.037 166.07 271.832 166.07 272.824V272.9C166.07 273.518 165.951 274.072 165.713 274.564C165.479 275.053 165.141 275.434 164.699 275.707C164.262 275.98 163.758 276.117 163.188 276.117C162.328 276.117 161.631 275.818 161.096 275.221C160.564 274.623 160.299 273.832 160.299 272.848V272.771ZM161.389 272.9C161.389 273.604 161.551 274.168 161.875 274.594C162.203 275.02 162.641 275.232 163.188 275.232C163.738 275.232 164.176 275.018 164.5 274.588C164.824 274.154 164.986 273.549 164.986 272.771C164.986 272.076 164.82 271.514 164.488 271.084C164.16 270.65 163.723 270.434 163.176 270.434C162.641 270.434 162.209 270.646 161.881 271.072C161.553 271.498 161.389 272.107 161.389 272.9ZM170.494 270.633C170.33 270.605 170.152 270.592 169.961 270.592C169.25 270.592 168.768 270.895 168.514 271.5V276H167.43V269.66H168.484L168.502 270.393C168.857 269.826 169.361 269.543 170.014 269.543C170.225 269.543 170.385 269.57 170.494 269.625V270.633ZM172.516 269.66L172.545 270.363C173.01 269.816 173.637 269.543 174.426 269.543C175.312 269.543 175.916 269.883 176.236 270.562C176.447 270.258 176.721 270.012 177.057 269.824C177.396 269.637 177.797 269.543 178.258 269.543C179.648 269.543 180.355 270.279 180.379 271.752V276H179.295V271.816C179.295 271.363 179.191 271.025 178.984 270.803C178.777 270.576 178.43 270.463 177.941 270.463C177.539 270.463 177.205 270.584 176.939 270.826C176.674 271.064 176.52 271.387 176.477 271.793V276H175.387V271.846C175.387 270.924 174.936 270.463 174.033 270.463C173.322 270.463 172.836 270.766 172.574 271.371V276H171.49V269.66H172.516ZM183.197 276H182.113V269.66H183.197V276ZM182.025 267.979C182.025 267.803 182.078 267.654 182.184 267.533C182.293 267.412 182.453 267.352 182.664 267.352C182.875 267.352 183.035 267.412 183.145 267.533C183.254 267.654 183.309 267.803 183.309 267.979C183.309 268.154 183.254 268.301 183.145 268.418C183.035 268.535 182.875 268.594 182.664 268.594C182.453 268.594 182.293 268.535 182.184 268.418C182.078 268.301 182.025 268.154 182.025 267.979Z" fill="black"/>
<path d="M203.547 262H202.416L198.121 255.426V262H196.99V253.469H198.121L202.428 260.072V253.469H203.547V262ZM212.107 258.01C212.107 258.846 211.967 259.576 211.686 260.201C211.404 260.822 211.006 261.297 210.49 261.625C209.975 261.953 209.373 262.117 208.686 262.117C208.014 262.117 207.418 261.953 206.898 261.625C206.379 261.293 205.975 260.822 205.686 260.213C205.4 259.6 205.254 258.891 205.246 258.086V257.471C205.246 256.65 205.389 255.926 205.674 255.297C205.959 254.668 206.361 254.188 206.881 253.855C207.404 253.52 208.002 253.352 208.674 253.352C209.357 253.352 209.959 253.518 210.479 253.85C211.002 254.178 211.404 254.656 211.686 255.285C211.967 255.91 212.107 256.639 212.107 257.471V258.01ZM210.988 257.459C210.988 256.447 210.785 255.672 210.379 255.133C209.973 254.59 209.404 254.318 208.674 254.318C207.963 254.318 207.402 254.59 206.992 255.133C206.586 255.672 206.377 256.422 206.365 257.383V258.01C206.365 258.99 206.57 259.762 206.98 260.324C207.395 260.883 207.963 261.162 208.686 261.162C209.412 261.162 209.975 260.898 210.373 260.371C210.771 259.84 210.977 259.08 210.988 258.092V257.459Z" fill="black"/>
<rect x="230" y="242" width="134" height="60" fill="#3198B9"/>
<path d="M244.197 276H243.072V267.469H244.197V276ZM247.109 269.66L247.139 270.363C247.604 269.816 248.23 269.543 249.02 269.543C249.906 269.543 250.51 269.883 250.83 270.562C251.041 270.258 251.314 270.012 251.65 269.824C251.99 269.637 252.391 269.543 252.852 269.543C254.242 269.543 254.949 270.279 254.973 271.752V276H253.889V271.816C253.889 271.363 253.785 271.025 253.578 270.803C253.371 270.576 253.023 270.463 252.535 270.463C252.133 270.463 251.799 270.584 251.533 270.826C251.268 271.064 251.113 271.387 251.07 271.793V276H249.98V271.846C249.98 270.924 249.529 270.463 248.627 270.463C247.916 270.463 247.43 270.766 247.168 271.371V276H246.084V269.66H247.109ZM261.969 272.9C261.969 273.865 261.748 274.643 261.307 275.232C260.865 275.822 260.268 276.117 259.514 276.117C258.744 276.117 258.139 275.873 257.697 275.385V278.438H256.613V269.66H257.604L257.656 270.363C258.098 269.816 258.711 269.543 259.496 269.543C260.258 269.543 260.859 269.83 261.301 270.404C261.746 270.979 261.969 271.777 261.969 272.801V272.9ZM260.885 272.777C260.885 272.062 260.732 271.498 260.428 271.084C260.123 270.67 259.705 270.463 259.174 270.463C258.518 270.463 258.025 270.754 257.697 271.336V274.365C258.021 274.943 258.518 275.232 259.186 275.232C259.705 275.232 260.117 275.027 260.422 274.617C260.73 274.203 260.885 273.59 260.885 272.777ZM263.064 272.771C263.064 272.15 263.186 271.592 263.428 271.096C263.674 270.6 264.014 270.217 264.447 269.947C264.885 269.678 265.383 269.543 265.941 269.543C266.805 269.543 267.502 269.842 268.033 270.439C268.568 271.037 268.836 271.832 268.836 272.824V272.9C268.836 273.518 268.717 274.072 268.479 274.564C268.244 275.053 267.906 275.434 267.465 275.707C267.027 275.98 266.523 276.117 265.953 276.117C265.094 276.117 264.396 275.818 263.861 275.221C263.33 274.623 263.064 273.832 263.064 272.848V272.771ZM264.154 272.9C264.154 273.604 264.316 274.168 264.641 274.594C264.969 275.02 265.406 275.232 265.953 275.232C266.504 275.232 266.941 275.018 267.266 274.588C267.59 274.154 267.752 273.549 267.752 272.771C267.752 272.076 267.586 271.514 267.254 271.084C266.926 270.65 266.488 270.434 265.941 270.434C265.406 270.434 264.975 270.646 264.646 271.072C264.318 271.498 264.154 272.107 264.154 272.9ZM271.221 269.66L271.256 270.457C271.74 269.848 272.373 269.543 273.154 269.543C274.494 269.543 275.17 270.299 275.182 271.811V276H274.098V271.805C274.094 271.348 273.988 271.01 273.781 270.791C273.578 270.572 273.26 270.463 272.826 270.463C272.475 270.463 272.166 270.557 271.9 270.744C271.635 270.932 271.428 271.178 271.279 271.482V276H270.195V269.66H271.221ZM277.994 276H276.91V269.66H277.994V276ZM276.822 267.979C276.822 267.803 276.875 267.654 276.98 267.533C277.09 267.412 277.25 267.352 277.461 267.352C277.672 267.352 277.832 267.412 277.941 267.533C278.051 267.654 278.105 267.803 278.105 267.979C278.105 268.154 278.051 268.301 277.941 268.418C277.832 268.535 277.672 268.594 277.461 268.594C277.25 268.594 277.09 268.535 276.98 268.418C276.875 268.301 276.822 268.154 276.822 267.979ZM284.803 274.529L286.373 269.66H287.48L285.207 276H284.381L282.084 269.66H283.191L284.803 274.529ZM292.344 276C292.281 275.875 292.23 275.652 292.191 275.332C291.688 275.855 291.086 276.117 290.387 276.117C289.762 276.117 289.248 275.941 288.846 275.59C288.447 275.234 288.248 274.785 288.248 274.242C288.248 273.582 288.498 273.07 288.998 272.707C289.502 272.34 290.209 272.156 291.119 272.156H292.174V271.658C292.174 271.279 292.061 270.979 291.834 270.756C291.607 270.529 291.273 270.416 290.832 270.416C290.445 270.416 290.121 270.514 289.859 270.709C289.598 270.904 289.467 271.141 289.467 271.418H288.377C288.377 271.102 288.488 270.797 288.711 270.504C288.938 270.207 289.242 269.973 289.625 269.801C290.012 269.629 290.436 269.543 290.896 269.543C291.627 269.543 292.199 269.727 292.613 270.094C293.027 270.457 293.242 270.959 293.258 271.6V274.518C293.258 275.1 293.332 275.562 293.48 275.906V276H292.344ZM290.545 275.174C290.885 275.174 291.207 275.086 291.512 274.91C291.816 274.734 292.037 274.506 292.174 274.225V272.924H291.324C289.996 272.924 289.332 273.312 289.332 274.09C289.332 274.43 289.445 274.695 289.672 274.887C289.898 275.078 290.189 275.174 290.545 275.174ZM296.135 276H295.051V267H296.135V276ZM297.588 272.771C297.588 272.15 297.709 271.592 297.951 271.096C298.197 270.6 298.537 270.217 298.971 269.947C299.408 269.678 299.906 269.543 300.465 269.543C301.328 269.543 302.025 269.842 302.557 270.439C303.092 271.037 303.359 271.832 303.359 272.824V272.9C303.359 273.518 303.24 274.072 303.002 274.564C302.768 275.053 302.43 275.434 301.988 275.707C301.551 275.98 301.047 276.117 300.477 276.117C299.617 276.117 298.92 275.818 298.385 275.221C297.854 274.623 297.588 273.832 297.588 272.848V272.771ZM298.678 272.9C298.678 273.604 298.84 274.168 299.164 274.594C299.492 275.02 299.93 275.232 300.477 275.232C301.027 275.232 301.465 275.018 301.789 274.588C302.113 274.154 302.275 273.549 302.275 272.771C302.275 272.076 302.109 271.514 301.777 271.084C301.449 270.65 301.012 270.434 300.465 270.434C299.93 270.434 299.498 270.646 299.17 271.072C298.842 271.498 298.678 272.107 298.678 272.9ZM307.783 270.633C307.619 270.605 307.441 270.592 307.25 270.592C306.539 270.592 306.057 270.895 305.803 271.5V276H304.719V269.66H305.773L305.791 270.393C306.146 269.826 306.65 269.543 307.303 269.543C307.514 269.543 307.674 269.57 307.783 269.625V270.633ZM309.963 276H308.879V269.66H309.963V276ZM308.791 267.979C308.791 267.803 308.844 267.654 308.949 267.533C309.059 267.412 309.219 267.352 309.43 267.352C309.641 267.352 309.801 267.412 309.91 267.533C310.02 267.654 310.074 267.803 310.074 267.979C310.074 268.154 310.02 268.301 309.91 268.418C309.801 268.535 309.641 268.594 309.43 268.594C309.219 268.594 309.059 268.535 308.949 268.418C308.844 268.301 308.791 268.154 308.791 267.979ZM314.416 272.777C314.416 271.805 314.646 271.023 315.107 270.434C315.568 269.84 316.172 269.543 316.918 269.543C317.66 269.543 318.248 269.797 318.682 270.305V267H319.766V276H318.77L318.717 275.32C318.283 275.852 317.68 276.117 316.906 276.117C316.172 276.117 315.572 275.816 315.107 275.215C314.646 274.613 314.416 273.828 314.416 272.859V272.777ZM315.5 272.9C315.5 273.619 315.648 274.182 315.945 274.588C316.242 274.994 316.652 275.197 317.176 275.197C317.863 275.197 318.365 274.889 318.682 274.271V271.359C318.357 270.762 317.859 270.463 317.188 270.463C316.656 270.463 316.242 270.668 315.945 271.078C315.648 271.488 315.5 272.096 315.5 272.9ZM324.084 276.117C323.225 276.117 322.525 275.836 321.986 275.273C321.447 274.707 321.178 273.951 321.178 273.006V272.807C321.178 272.178 321.297 271.617 321.535 271.125C321.777 270.629 322.113 270.242 322.543 269.965C322.977 269.684 323.445 269.543 323.949 269.543C324.773 269.543 325.414 269.814 325.871 270.357C326.328 270.9 326.557 271.678 326.557 272.689V273.141H322.262C322.277 273.766 322.459 274.271 322.807 274.658C323.158 275.041 323.604 275.232 324.143 275.232C324.525 275.232 324.85 275.154 325.115 274.998C325.381 274.842 325.613 274.635 325.812 274.377L326.475 274.893C325.943 275.709 325.146 276.117 324.084 276.117ZM323.949 270.434C323.512 270.434 323.145 270.594 322.848 270.914C322.551 271.23 322.367 271.676 322.297 272.25H325.473V272.168C325.441 271.617 325.293 271.191 325.027 270.891C324.762 270.586 324.402 270.434 323.949 270.434ZM328.35 276V270.498H327.348V269.66H328.35V269.01C328.35 268.33 328.531 267.805 328.895 267.434C329.258 267.062 329.771 266.877 330.436 266.877C330.686 266.877 330.934 266.91 331.18 266.977L331.121 267.855C330.938 267.82 330.742 267.803 330.535 267.803C330.184 267.803 329.912 267.906 329.721 268.113C329.529 268.316 329.434 268.609 329.434 268.992V269.66H330.787V270.498H329.434V276H328.35ZM335.902 276C335.84 275.875 335.789 275.652 335.75 275.332C335.246 275.855 334.645 276.117 333.945 276.117C333.32 276.117 332.807 275.941 332.404 275.59C332.006 275.234 331.807 274.785 331.807 274.242C331.807 273.582 332.057 273.07 332.557 272.707C333.061 272.34 333.768 272.156 334.678 272.156H335.732V271.658C335.732 271.279 335.619 270.979 335.393 270.756C335.166 270.529 334.832 270.416 334.391 270.416C334.004 270.416 333.68 270.514 333.418 270.709C333.156 270.904 333.025 271.141 333.025 271.418H331.936C331.936 271.102 332.047 270.797 332.27 270.504C332.496 270.207 332.801 269.973 333.184 269.801C333.57 269.629 333.994 269.543 334.455 269.543C335.186 269.543 335.758 269.727 336.172 270.094C336.586 270.457 336.801 270.959 336.816 271.6V274.518C336.816 275.1 336.891 275.562 337.039 275.906V276H335.902ZM334.104 275.174C334.443 275.174 334.766 275.086 335.07 274.91C335.375 274.734 335.596 274.506 335.732 274.225V272.924H334.883C333.555 272.924 332.891 273.312 332.891 274.09C332.891 274.43 333.004 274.695 333.23 274.887C333.457 275.078 333.748 275.174 334.104 275.174ZM342.43 275.373C342.008 275.869 341.389 276.117 340.572 276.117C339.896 276.117 339.381 275.922 339.025 275.531C338.674 275.137 338.496 274.555 338.492 273.785V269.66H339.576V273.756C339.576 274.717 339.967 275.197 340.748 275.197C341.576 275.197 342.127 274.889 342.4 274.271V269.66H343.484V276H342.453L342.43 275.373ZM346.314 276H345.23V267H346.314V276ZM349.525 268.125V269.66H350.709V270.498H349.525V274.43C349.525 274.684 349.578 274.875 349.684 275.004C349.789 275.129 349.969 275.191 350.223 275.191C350.348 275.191 350.52 275.168 350.738 275.121V276C350.453 276.078 350.176 276.117 349.906 276.117C349.422 276.117 349.057 275.971 348.811 275.678C348.564 275.385 348.441 274.969 348.441 274.43V270.498H347.287V269.66H348.441V268.125H349.525Z" fill="black"/>
<line x1="196" y1="271.5" x2="230" y2="271.5" stroke="black"/>
<line x1="120.5" y1="315" x2="120.5" y2="364" stroke="black"/>
<line x1="297.5" y1="302" x2="297.5" y2="406" stroke="black"/>
<path d="M131.807 333.197C130.842 332.92 130.139 332.58 129.697 332.178C129.26 331.771 129.041 331.271 129.041 330.678C129.041 330.006 129.309 329.451 129.844 329.014C130.383 328.572 131.082 328.352 131.941 328.352C132.527 328.352 133.049 328.465 133.506 328.691C133.967 328.918 134.322 329.23 134.572 329.629C134.826 330.027 134.953 330.463 134.953 330.936H133.822C133.822 330.42 133.658 330.016 133.33 329.723C133.002 329.426 132.539 329.277 131.941 329.277C131.387 329.277 130.953 329.4 130.641 329.646C130.332 329.889 130.178 330.227 130.178 330.66C130.178 331.008 130.324 331.303 130.617 331.545C130.914 331.783 131.416 332.002 132.123 332.201C132.834 332.4 133.389 332.621 133.787 332.863C134.189 333.102 134.486 333.381 134.678 333.701C134.873 334.021 134.971 334.398 134.971 334.832C134.971 335.523 134.701 336.078 134.162 336.496C133.623 336.91 132.902 337.117 132 337.117C131.414 337.117 130.867 337.006 130.359 336.783C129.852 336.557 129.459 336.248 129.182 335.857C128.908 335.467 128.771 335.023 128.771 334.527H129.902C129.902 335.043 130.092 335.451 130.471 335.752C130.854 336.049 131.363 336.197 132 336.197C132.594 336.197 133.049 336.076 133.365 335.834C133.682 335.592 133.84 335.262 133.84 334.844C133.84 334.426 133.693 334.104 133.4 333.877C133.107 333.646 132.576 333.42 131.807 333.197ZM137.625 337H136.5V328.469H137.625V337Z" fill="black"/>
<path d="M119.646 229.354C119.842 229.549 120.158 229.549 120.354 229.354L123.536 226.172C123.731 225.976 123.731 225.66 123.536 225.464C123.34 225.269 123.024 225.269 122.828 225.464L120 228.293L117.172 225.464C116.976 225.269 116.66 225.269 116.464 225.464C116.269 225.66 116.269 225.976 116.464 226.172L119.646 229.354ZM119.5 190L119.5 229L120.5 229L120.5 190L119.5 190Z" fill="black"/>
<path d="M230.354 272.354C230.549 272.158 230.549 271.842 230.354 271.646L227.172 268.464C226.976 268.269 226.66 268.269 226.464 268.464C226.269 268.66 226.269 268.976 226.464 269.172L229.293 272L226.464 274.828C226.269 275.024 226.269 275.34 226.464 275.536C226.66 275.731 226.976 275.731 227.172 275.536L230.354 272.354ZM196 272.5H230V271.5H196V272.5Z" fill="black"/>
<path d="M203.646 405.646C203.451 405.842 203.451 406.158 203.646 406.354L206.828 409.536C207.024 409.731 207.34 409.731 207.536 409.536C207.731 409.34 207.731 409.024 207.536 408.828L204.707 406L207.536 403.172C207.731 402.976 207.731 402.66 207.536 402.464C207.34 402.269 207.024 402.269 206.828 402.464L203.646 405.646ZM297 405.5L204 405.5L204 406.5L297 406.5L297 405.5Z" fill="black"/>
<path d="M119.646 364.354C119.842 364.549 120.158 364.549 120.354 364.354L123.536 361.172C123.731 360.976 123.731 360.66 123.536 360.464C123.34 360.269 123.024 360.269 122.828 360.464L120 363.293L117.172 360.464C116.976 360.269 116.66 360.269 116.464 360.464C116.269 360.66 116.269 360.976 116.464 361.172L119.646 364.354ZM119.5 315L119.5 364L120.5 364L120.5 315L119.5 315Z" fill="black"/>
<ellipse cx="120" cy="405.5" rx="84" ry="41.5" fill="#FA4A4A"/>
<path d="M89.8828 406.232H86.3027V410H85.1777V401.469H90.4629V402.395H86.3027V405.312H89.8828V406.232ZM92.8184 410H91.7344V403.66H92.8184V410ZM91.6465 401.979C91.6465 401.803 91.6992 401.654 91.8047 401.533C91.9141 401.412 92.0742 401.352 92.2852 401.352C92.4961 401.352 92.6562 401.412 92.7656 401.533C92.875 401.654 92.9297 401.803 92.9297 401.979C92.9297 402.154 92.875 402.301 92.7656 402.418C92.6562 402.535 92.4961 402.594 92.2852 402.594C92.0742 402.594 91.9141 402.535 91.8047 402.418C91.6992 402.301 91.6465 402.154 91.6465 401.979ZM95.584 403.66L95.6191 404.457C96.1035 403.848 96.7363 403.543 97.5176 403.543C98.8574 403.543 99.5332 404.299 99.5449 405.811V410H98.4609V405.805C98.457 405.348 98.3516 405.01 98.1445 404.791C97.9414 404.572 97.623 404.463 97.1895 404.463C96.8379 404.463 96.5293 404.557 96.2637 404.744C95.998 404.932 95.791 405.178 95.6426 405.482V410H94.5586V403.66H95.584ZM103.811 410.117C102.951 410.117 102.252 409.836 101.713 409.273C101.174 408.707 100.904 407.951 100.904 407.006V406.807C100.904 406.178 101.023 405.617 101.262 405.125C101.504 404.629 101.84 404.242 102.27 403.965C102.703 403.684 103.172 403.543 103.676 403.543C104.5 403.543 105.141 403.814 105.598 404.357C106.055 404.9 106.283 405.678 106.283 406.689V407.141H101.988C102.004 407.766 102.186 408.271 102.533 408.658C102.885 409.041 103.33 409.232 103.869 409.232C104.252 409.232 104.576 409.154 104.842 408.998C105.107 408.842 105.34 408.635 105.539 408.377L106.201 408.893C105.67 409.709 104.873 410.117 103.811 410.117ZM103.676 404.434C103.238 404.434 102.871 404.594 102.574 404.914C102.277 405.23 102.094 405.676 102.023 406.25H105.199V406.168C105.168 405.617 105.02 405.191 104.754 404.891C104.488 404.586 104.129 404.434 103.676 404.434ZM111.053 410V404.498H110.051V403.66H111.053V403.01C111.053 402.33 111.234 401.805 111.598 401.434C111.961 401.062 112.475 400.877 113.139 400.877C113.389 400.877 113.637 400.91 113.883 400.977L113.824 401.855C113.641 401.82 113.445 401.803 113.238 401.803C112.887 401.803 112.615 401.906 112.424 402.113C112.232 402.316 112.137 402.609 112.137 402.992V403.66H113.49V404.498H112.137V410H111.053ZM118.605 409.373C118.184 409.869 117.564 410.117 116.748 410.117C116.072 410.117 115.557 409.922 115.201 409.531C114.85 409.137 114.672 408.555 114.668 407.785V403.66H115.752V407.756C115.752 408.717 116.143 409.197 116.924 409.197C117.752 409.197 118.303 408.889 118.576 408.271V403.66H119.66V410H118.629L118.605 409.373ZM122.338 403.66L122.373 404.457C122.857 403.848 123.49 403.543 124.271 403.543C125.611 403.543 126.287 404.299 126.299 405.811V410H125.215V405.805C125.211 405.348 125.105 405.01 124.898 404.791C124.695 404.572 124.377 404.463 123.943 404.463C123.592 404.463 123.283 404.557 123.018 404.744C122.752 404.932 122.545 405.178 122.396 405.482V410H121.312V403.66H122.338ZM128.953 409.115H132.662V410H127.629V409.203L131.127 404.557H127.682V403.66H132.486V404.428L128.953 409.115ZM135.064 410H133.98V403.66H135.064V410ZM133.893 401.979C133.893 401.803 133.945 401.654 134.051 401.533C134.16 401.412 134.32 401.352 134.531 401.352C134.742 401.352 134.902 401.412 135.012 401.533C135.121 401.654 135.176 401.803 135.176 401.979C135.176 402.154 135.121 402.301 135.012 402.418C134.902 402.535 134.742 402.594 134.531 402.594C134.32 402.594 134.16 402.535 134.051 402.418C133.945 402.301 133.893 402.154 133.893 401.979ZM136.518 406.771C136.518 406.15 136.639 405.592 136.881 405.096C137.127 404.6 137.467 404.217 137.9 403.947C138.338 403.678 138.836 403.543 139.395 403.543C140.258 403.543 140.955 403.842 141.486 404.439C142.021 405.037 142.289 405.832 142.289 406.824V406.9C142.289 407.518 142.17 408.072 141.932 408.564C141.697 409.053 141.359 409.434 140.918 409.707C140.48 409.98 139.977 410.117 139.406 410.117C138.547 410.117 137.85 409.818 137.314 409.221C136.783 408.623 136.518 407.832 136.518 406.848V406.771ZM137.607 406.9C137.607 407.604 137.77 408.168 138.094 408.594C138.422 409.02 138.859 409.232 139.406 409.232C139.957 409.232 140.395 409.018 140.719 408.588C141.043 408.154 141.205 407.549 141.205 406.771C141.205 406.076 141.039 405.514 140.707 405.084C140.379 404.65 139.941 404.434 139.395 404.434C138.859 404.434 138.428 404.646 138.1 405.072C137.771 405.498 137.607 406.107 137.607 406.9ZM144.674 403.66L144.709 404.457C145.193 403.848 145.826 403.543 146.607 403.543C147.947 403.543 148.623 404.299 148.635 405.811V410H147.551V405.805C147.547 405.348 147.441 405.01 147.234 404.791C147.031 404.572 146.713 404.463 146.279 404.463C145.928 404.463 145.619 404.557 145.354 404.744C145.088 404.932 144.881 405.178 144.732 405.482V410H143.648V403.66H144.674ZM152.9 410.117C152.041 410.117 151.342 409.836 150.803 409.273C150.264 408.707 149.994 407.951 149.994 407.006V406.807C149.994 406.178 150.113 405.617 150.352 405.125C150.594 404.629 150.93 404.242 151.359 403.965C151.793 403.684 152.262 403.543 152.766 403.543C153.59 403.543 154.23 403.814 154.688 404.357C155.145 404.9 155.373 405.678 155.373 406.689V407.141H151.078C151.094 407.766 151.275 408.271 151.623 408.658C151.975 409.041 152.42 409.232 152.959 409.232C153.342 409.232 153.666 409.154 153.932 408.998C154.197 408.842 154.43 408.635 154.629 408.377L155.291 408.893C154.76 409.709 153.963 410.117 152.9 410.117ZM152.766 404.434C152.328 404.434 151.961 404.594 151.664 404.914C151.367 405.23 151.184 405.676 151.113 406.25H154.289V406.168C154.258 405.617 154.109 405.191 153.844 404.891C153.578 404.586 153.219 404.434 152.766 404.434Z" fill="black"/>
<rect x="36" y="130" width="168" height="60" fill="#69C061"/>
<path d="M70.8398 156.66L70.8691 157.363C71.334 156.816 71.9609 156.543 72.75 156.543C73.6367 156.543 74.2402 156.883 74.5605 157.562C74.7715 157.258 75.0449 157.012 75.3809 156.824C75.7207 156.637 76.1211 156.543 76.582 156.543C77.9727 156.543 78.6797 157.279 78.7031 158.752V163H77.6191V158.816C77.6191 158.363 77.5156 158.025 77.3086 157.803C77.1016 157.576 76.7539 157.463 76.2656 157.463C75.8633 157.463 75.5293 157.584 75.2637 157.826C74.998 158.064 74.8438 158.387 74.8008 158.793V163H73.7109V158.846C73.7109 157.924 73.2598 157.463 72.3574 157.463C71.6465 157.463 71.1602 157.766 70.8984 158.371V163H69.8145V156.66H70.8398ZM84.2578 163C84.1953 162.875 84.1445 162.652 84.1055 162.332C83.6016 162.855 83 163.117 82.3008 163.117C81.6758 163.117 81.1621 162.941 80.7598 162.59C80.3613 162.234 80.1621 161.785 80.1621 161.242C80.1621 160.582 80.4121 160.07 80.9121 159.707C81.416 159.34 82.123 159.156 83.0332 159.156H84.0879V158.658C84.0879 158.279 83.9746 157.979 83.748 157.756C83.5215 157.529 83.1875 157.416 82.7461 157.416C82.3594 157.416 82.0352 157.514 81.7734 157.709C81.5117 157.904 81.3809 158.141 81.3809 158.418H80.291C80.291 158.102 80.4023 157.797 80.625 157.504C80.8516 157.207 81.1562 156.973 81.5391 156.801C81.9258 156.629 82.3496 156.543 82.8105 156.543C83.541 156.543 84.1133 156.727 84.5273 157.094C84.9414 157.457 85.1562 157.959 85.1719 158.6V161.518C85.1719 162.1 85.2461 162.562 85.3945 162.906V163H84.2578ZM82.459 162.174C82.7988 162.174 83.1211 162.086 83.4258 161.91C83.7305 161.734 83.9512 161.506 84.0879 161.225V159.924H83.2383C81.9102 159.924 81.2461 160.312 81.2461 161.09C81.2461 161.43 81.3594 161.695 81.5859 161.887C81.8125 162.078 82.1035 162.174 82.459 162.174ZM89.4141 162.232C89.8008 162.232 90.1387 162.115 90.4277 161.881C90.7168 161.646 90.877 161.354 90.9082 161.002H91.9336C91.9141 161.365 91.7891 161.711 91.5586 162.039C91.3281 162.367 91.0195 162.629 90.6328 162.824C90.25 163.02 89.8438 163.117 89.4141 163.117C88.5508 163.117 87.8633 162.83 87.3516 162.256C86.8438 161.678 86.5898 160.889 86.5898 159.889V159.707C86.5898 159.09 86.7031 158.541 86.9297 158.061C87.1562 157.58 87.4805 157.207 87.9023 156.941C88.3281 156.676 88.8301 156.543 89.4082 156.543C90.1191 156.543 90.709 156.756 91.1777 157.182C91.6504 157.607 91.9023 158.16 91.9336 158.84H90.9082C90.877 158.43 90.7207 158.094 90.4395 157.832C90.1621 157.566 89.8184 157.434 89.4082 157.434C88.8574 157.434 88.4297 157.633 88.125 158.031C87.8242 158.426 87.6738 158.998 87.6738 159.748V159.953C87.6738 160.684 87.8242 161.246 88.125 161.641C88.4258 162.035 88.8555 162.232 89.4141 162.232ZM98.0332 160.773H94.459L93.6562 163H92.4961L95.7539 154.469H96.7383L100.002 163H98.8477L98.0332 160.773ZM94.7988 159.848H97.6992L96.2461 155.857L94.7988 159.848ZM100.717 159.777C100.717 158.805 100.947 158.023 101.408 157.434C101.869 156.84 102.473 156.543 103.219 156.543C103.961 156.543 104.549 156.797 104.982 157.305V154H106.066V163H105.07L105.018 162.32C104.584 162.852 103.98 163.117 103.207 163.117C102.473 163.117 101.873 162.816 101.408 162.215C100.947 161.613 100.717 160.828 100.717 159.859V159.777ZM101.801 159.9C101.801 160.619 101.949 161.182 102.246 161.588C102.543 161.994 102.953 162.197 103.477 162.197C104.164 162.197 104.666 161.889 104.982 161.271V158.359C104.658 157.762 104.16 157.463 103.488 157.463C102.957 157.463 102.543 157.668 102.246 158.078C101.949 158.488 101.801 159.096 101.801 159.9ZM107.49 159.777C107.49 158.805 107.721 158.023 108.182 157.434C108.643 156.84 109.246 156.543 109.992 156.543C110.734 156.543 111.322 156.797 111.756 157.305V154H112.84V163H111.844L111.791 162.32C111.357 162.852 110.754 163.117 109.98 163.117C109.246 163.117 108.646 162.816 108.182 162.215C107.721 161.613 107.49 160.828 107.49 159.859V159.777ZM108.574 159.9C108.574 160.619 108.723 161.182 109.02 161.588C109.316 161.994 109.727 162.197 110.25 162.197C110.938 162.197 111.439 161.889 111.756 161.271V158.359C111.432 157.762 110.934 157.463 110.262 157.463C109.73 157.463 109.316 157.668 109.02 158.078C108.723 158.488 108.574 159.096 108.574 159.9ZM117.592 157.633C117.428 157.605 117.25 157.592 117.059 157.592C116.348 157.592 115.865 157.895 115.611 158.5V163H114.527V156.66H115.582L115.6 157.393C115.955 156.826 116.459 156.543 117.111 156.543C117.322 156.543 117.482 156.57 117.592 156.625V157.633ZM124.658 155.395H121.916V163H120.797V155.395H118.061V154.469H124.658V155.395ZM124.881 159.771C124.881 159.15 125.002 158.592 125.244 158.096C125.49 157.6 125.83 157.217 126.264 156.947C126.701 156.678 127.199 156.543 127.758 156.543C128.621 156.543 129.318 156.842 129.85 157.439C130.385 158.037 130.652 158.832 130.652 159.824V159.9C130.652 160.518 130.533 161.072 130.295 161.564C130.061 162.053 129.723 162.434 129.281 162.707C128.844 162.98 128.34 163.117 127.77 163.117C126.91 163.117 126.213 162.818 125.678 162.221C125.146 161.623 124.881 160.832 124.881 159.848V159.771ZM125.971 159.9C125.971 160.604 126.133 161.168 126.457 161.594C126.785 162.02 127.223 162.232 127.77 162.232C128.32 162.232 128.758 162.018 129.082 161.588C129.406 161.154 129.568 160.549 129.568 159.771C129.568 159.076 129.402 158.514 129.07 158.084C128.742 157.65 128.305 157.434 127.758 157.434C127.223 157.434 126.791 157.646 126.463 158.072C126.135 158.498 125.971 159.107 125.971 159.9ZM134.695 159.197C133.73 158.92 133.027 158.58 132.586 158.178C132.148 157.771 131.93 157.271 131.93 156.678C131.93 156.006 132.197 155.451 132.732 155.014C133.271 154.572 133.971 154.352 134.83 154.352C135.416 154.352 135.938 154.465 136.395 154.691C136.855 154.918 137.211 155.23 137.461 155.629C137.715 156.027 137.842 156.463 137.842 156.936H136.711C136.711 156.42 136.547 156.016 136.219 155.723C135.891 155.426 135.428 155.277 134.83 155.277C134.275 155.277 133.842 155.4 133.529 155.646C133.221 155.889 133.066 156.227 133.066 156.66C133.066 157.008 133.213 157.303 133.506 157.545C133.803 157.783 134.305 158.002 135.012 158.201C135.723 158.4 136.277 158.621 136.676 158.863C137.078 159.102 137.375 159.381 137.566 159.701C137.762 160.021 137.859 160.398 137.859 160.832C137.859 161.523 137.59 162.078 137.051 162.496C136.512 162.91 135.791 163.117 134.889 163.117C134.303 163.117 133.756 163.006 133.248 162.783C132.74 162.557 132.348 162.248 132.07 161.857C131.797 161.467 131.66 161.023 131.66 160.527H132.791C132.791 161.043 132.98 161.451 133.359 161.752C133.742 162.049 134.252 162.197 134.889 162.197C135.482 162.197 135.938 162.076 136.254 161.834C136.57 161.592 136.729 161.262 136.729 160.844C136.729 160.426 136.582 160.104 136.289 159.877C135.996 159.646 135.465 159.42 134.695 159.197ZM140.607 155.125V156.66H141.791V157.498H140.607V161.43C140.607 161.684 140.66 161.875 140.766 162.004C140.871 162.129 141.051 162.191 141.305 162.191C141.43 162.191 141.602 162.168 141.82 162.121V163C141.535 163.078 141.258 163.117 140.988 163.117C140.504 163.117 140.139 162.971 139.893 162.678C139.646 162.385 139.523 161.969 139.523 161.43V157.498H138.369V156.66H139.523V155.125H140.607ZM146.127 157.633C145.963 157.605 145.785 157.592 145.594 157.592C144.883 157.592 144.4 157.895 144.146 158.5V163H143.062V156.66H144.117L144.135 157.393C144.49 156.826 144.994 156.543 145.646 156.543C145.857 156.543 146.018 156.57 146.127 156.625V157.633ZM148.307 163H147.223V156.66H148.307V163ZM147.135 154.979C147.135 154.803 147.188 154.654 147.293 154.533C147.402 154.412 147.562 154.352 147.773 154.352C147.984 154.352 148.145 154.412 148.254 154.533C148.363 154.654 148.418 154.803 148.418 154.979C148.418 155.154 148.363 155.301 148.254 155.418C148.145 155.535 147.984 155.594 147.773 155.594C147.562 155.594 147.402 155.535 147.293 155.418C147.188 155.301 147.135 155.154 147.135 154.979ZM151.072 156.66L151.107 157.457C151.592 156.848 152.225 156.543 153.006 156.543C154.346 156.543 155.021 157.299 155.033 158.811V163H153.949V158.805C153.945 158.348 153.84 158.01 153.633 157.791C153.43 157.572 153.111 157.463 152.678 157.463C152.326 157.463 152.018 157.557 151.752 157.744C151.486 157.932 151.279 158.178 151.131 158.482V163H150.047V156.66H151.072ZM156.41 159.777C156.41 158.789 156.639 158.004 157.096 157.422C157.553 156.836 158.158 156.543 158.912 156.543C159.686 156.543 160.289 156.816 160.723 157.363L160.775 156.66H161.766V162.848C161.766 163.668 161.521 164.314 161.033 164.787C160.549 165.26 159.896 165.496 159.076 165.496C158.619 165.496 158.172 165.398 157.734 165.203C157.297 165.008 156.963 164.74 156.732 164.4L157.295 163.75C157.76 164.324 158.328 164.611 159 164.611C159.527 164.611 159.938 164.463 160.23 164.166C160.527 163.869 160.676 163.451 160.676 162.912V162.367C160.242 162.867 159.65 163.117 158.9 163.117C158.158 163.117 157.557 162.818 157.096 162.221C156.639 161.623 156.41 160.809 156.41 159.777ZM157.5 159.9C157.5 160.615 157.646 161.178 157.939 161.588C158.232 161.994 158.643 162.197 159.17 162.197C159.854 162.197 160.355 161.887 160.676 161.266V158.371C160.344 157.766 159.846 157.463 159.182 157.463C158.654 157.463 158.242 157.668 157.945 158.078C157.648 158.488 157.5 159.096 157.5 159.9ZM163.365 159.537C163.365 158.654 163.482 157.807 163.717 156.994C163.955 156.182 164.309 155.443 164.777 154.779C165.246 154.115 165.732 153.646 166.236 153.373L166.459 154.088C165.889 154.525 165.42 155.193 165.053 156.092C164.689 156.99 164.49 157.996 164.455 159.109L164.449 159.607C164.449 161.115 164.725 162.424 165.275 163.533C165.607 164.197 166.002 164.717 166.459 165.092L166.236 165.754C165.717 165.465 165.221 164.98 164.748 164.301C163.826 162.973 163.365 161.385 163.365 159.537ZM170.01 159.596C170.01 160.467 169.895 161.303 169.664 162.104C169.438 162.9 169.088 163.637 168.615 164.312C168.146 164.988 167.654 165.469 167.139 165.754L166.91 165.092C167.512 164.631 167.994 163.916 168.357 162.947C168.725 161.975 168.912 160.896 168.92 159.713V159.525C168.92 158.705 168.834 157.943 168.662 157.24C168.49 156.533 168.25 155.9 167.941 155.342C167.637 154.783 167.293 154.348 166.91 154.035L167.139 153.373C167.654 153.658 168.145 154.135 168.609 154.803C169.078 155.471 169.428 156.207 169.658 157.012C169.893 157.816 170.01 158.678 170.01 159.596Z" fill="black"/>
<path d="M119.646 130.354C119.842 130.549 120.158 130.549 120.354 130.354L123.536 127.172C123.731 126.976 123.731 126.66 123.536 126.464C123.34 126.269 123.024 126.269 122.828 126.464L120 129.293L117.172 126.464C116.976 126.269 116.66 126.269 116.464 126.464C116.269 126.66 116.269 126.976 116.464 127.172L119.646 130.354ZM119.5 91L119.5 130L120.5 130L120.5 91L119.5 91Z" fill="black"/>
<ellipse cx="120" cy="50.5" rx="84" ry="41.5" fill="#FA4A4A"/>
<path d="M84.3906 50H83.2656V41.4688H84.3906V50ZM87.3086 43.6602L87.3438 44.457C87.8281 43.8477 88.4609 43.543 89.2422 43.543C90.582 43.543 91.2578 44.2988 91.2695 45.8105V50H90.1855V45.8047C90.1816 45.3477 90.0762 45.0098 89.8691 44.791C89.666 44.5723 89.3477 44.4629 88.9141 44.4629C88.5625 44.4629 88.2539 44.5566 87.9883 44.7441C87.7227 44.9316 87.5156 45.1777 87.3672 45.4824V50H86.2832V43.6602H87.3086ZM94.082 50H92.998V43.6602H94.082V50ZM92.9102 41.9785C92.9102 41.8027 92.9629 41.6543 93.0684 41.5332C93.1777 41.4121 93.3379 41.3516 93.5488 41.3516C93.7598 41.3516 93.9199 41.4121 94.0293 41.5332C94.1387 41.6543 94.1934 41.8027 94.1934 41.9785C94.1934 42.1543 94.1387 42.3008 94.0293 42.418C93.9199 42.5352 93.7598 42.5938 93.5488 42.5938C93.3379 42.5938 93.1777 42.5352 93.0684 42.418C92.9629 42.3008 92.9102 42.1543 92.9102 41.9785ZM96.8418 49.1152H100.551V50H95.5176V49.2031L99.0156 44.5566H95.5703V43.6602H100.375V44.4277L96.8418 49.1152ZM102.953 50H101.869V43.6602H102.953V50ZM101.781 41.9785C101.781 41.8027 101.834 41.6543 101.939 41.5332C102.049 41.4121 102.209 41.3516 102.42 41.3516C102.631 41.3516 102.791 41.4121 102.9 41.5332C103.01 41.6543 103.064 41.8027 103.064 41.9785C103.064 42.1543 103.01 42.3008 102.9 42.418C102.791 42.5352 102.631 42.5938 102.42 42.5938C102.209 42.5938 102.049 42.5352 101.939 42.418C101.834 42.3008 101.781 42.1543 101.781 41.9785ZM104.406 46.7715C104.406 46.1504 104.527 45.5918 104.77 45.0957C105.016 44.5996 105.355 44.2168 105.789 43.9473C106.227 43.6777 106.725 43.543 107.283 43.543C108.146 43.543 108.844 43.8418 109.375 44.4395C109.91 45.0371 110.178 45.832 110.178 46.8242V46.9004C110.178 47.5176 110.059 48.0723 109.82 48.5645C109.586 49.0527 109.248 49.4336 108.807 49.707C108.369 49.9805 107.865 50.1172 107.295 50.1172C106.436 50.1172 105.738 49.8184 105.203 49.2207C104.672 48.623 104.406 47.832 104.406 46.8477V46.7715ZM105.496 46.9004C105.496 47.6035 105.658 48.168 105.982 48.5938C106.311 49.0195 106.748 49.2324 107.295 49.2324C107.846 49.2324 108.283 49.0176 108.607 48.5879C108.932 48.1543 109.094 47.5488 109.094 46.7715C109.094 46.0762 108.928 45.5137 108.596 45.084C108.268 44.6504 107.83 44.4336 107.283 44.4336C106.748 44.4336 106.316 44.6465 105.988 45.0723C105.66 45.498 105.496 46.1074 105.496 46.9004ZM115.047 50V44.498H114.045V43.6602H115.047V43.0098C115.047 42.3301 115.229 41.8047 115.592 41.4336C115.955 41.0625 116.469 40.877 117.133 40.877C117.383 40.877 117.631 40.9102 117.877 40.9766L117.818 41.8555C117.635 41.8203 117.439 41.8027 117.232 41.8027C116.881 41.8027 116.609 41.9062 116.418 42.1133C116.227 42.3164 116.131 42.6094 116.131 42.9922V43.6602H117.484V44.498H116.131V50H115.047ZM122.6 49.373C122.178 49.8691 121.559 50.1172 120.742 50.1172C120.066 50.1172 119.551 49.9219 119.195 49.5312C118.844 49.1367 118.666 48.5547 118.662 47.7852V43.6602H119.746V47.7559C119.746 48.7168 120.137 49.1973 120.918 49.1973C121.746 49.1973 122.297 48.8887 122.57 48.2715V43.6602H123.654V50H122.623L122.6 49.373ZM126.332 43.6602L126.367 44.457C126.852 43.8477 127.484 43.543 128.266 43.543C129.605 43.543 130.281 44.2988 130.293 45.8105V50H129.209V45.8047C129.205 45.3477 129.1 45.0098 128.893 44.791C128.689 44.5723 128.371 44.4629 127.938 44.4629C127.586 44.4629 127.277 44.5566 127.012 44.7441C126.746 44.9316 126.539 45.1777 126.391 45.4824V50H125.307V43.6602H126.332ZM132.947 49.1152H136.656V50H131.623V49.2031L135.121 44.5566H131.676V43.6602H136.48V44.4277L132.947 49.1152ZM139.059 50H137.975V43.6602H139.059V50ZM137.887 41.9785C137.887 41.8027 137.939 41.6543 138.045 41.5332C138.154 41.4121 138.314 41.3516 138.525 41.3516C138.736 41.3516 138.896 41.4121 139.006 41.5332C139.115 41.6543 139.17 41.8027 139.17 41.9785C139.17 42.1543 139.115 42.3008 139.006 42.418C138.896 42.5352 138.736 42.5938 138.525 42.5938C138.314 42.5938 138.154 42.5352 138.045 42.418C137.939 42.3008 137.887 42.1543 137.887 41.9785ZM140.512 46.7715C140.512 46.1504 140.633 45.5918 140.875 45.0957C141.121 44.5996 141.461 44.2168 141.895 43.9473C142.332 43.6777 142.83 43.543 143.389 43.543C144.252 43.543 144.949 43.8418 145.48 44.4395C146.016 45.0371 146.283 45.832 146.283 46.8242V46.9004C146.283 47.5176 146.164 48.0723 145.926 48.5645C145.691 49.0527 145.354 49.4336 144.912 49.707C144.475 49.9805 143.971 50.1172 143.4 50.1172C142.541 50.1172 141.844 49.8184 141.309 49.2207C140.777 48.623 140.512 47.832 140.512 46.8477V46.7715ZM141.602 46.9004C141.602 47.6035 141.764 48.168 142.088 48.5938C142.416 49.0195 142.854 49.2324 143.4 49.2324C143.951 49.2324 144.389 49.0176 144.713 48.5879C145.037 48.1543 145.199 47.5488 145.199 46.7715C145.199 46.0762 145.033 45.5137 144.701 45.084C144.373 44.6504 143.936 44.4336 143.389 44.4336C142.854 44.4336 142.422 44.6465 142.094 45.0723C141.766 45.498 141.602 46.1074 141.602 46.9004ZM148.668 43.6602L148.703 44.457C149.188 43.8477 149.82 43.543 150.602 43.543C151.941 43.543 152.617 44.2988 152.629 45.8105V50H151.545V45.8047C151.541 45.3477 151.436 45.0098 151.229 44.791C151.025 44.5723 150.707 44.4629 150.273 44.4629C149.922 44.4629 149.613 44.5566 149.348 44.7441C149.082 44.9316 148.875 45.1777 148.727 45.4824V50H147.643V43.6602H148.668ZM156.895 50.1172C156.035 50.1172 155.336 49.8359 154.797 49.2734C154.258 48.707 153.988 47.9512 153.988 47.0059V46.8066C153.988 46.1777 154.107 45.6172 154.346 45.125C154.588 44.6289 154.924 44.2422 155.354 43.9648C155.787 43.6836 156.256 43.543 156.76 43.543C157.584 43.543 158.225 43.8145 158.682 44.3574C159.139 44.9004 159.367 45.6777 159.367 46.6895V47.1406H155.072C155.088 47.7656 155.27 48.2715 155.617 48.6582C155.969 49.041 156.414 49.2324 156.953 49.2324C157.336 49.2324 157.66 49.1543 157.926 48.998C158.191 48.8418 158.424 48.6348 158.623 48.377L159.285 48.8926C158.754 49.709 157.957 50.1172 156.895 50.1172ZM156.76 44.4336C156.322 44.4336 155.955 44.5938 155.658 44.9141C155.361 45.2305 155.178 45.6758 155.107 46.25H158.283V46.168C158.252 45.6172 158.104 45.1914 157.838 44.8906C157.572 44.5859 157.213 44.4336 156.76 44.4336ZM92.3184 62.5059L94.7559 55.4688H95.9863L92.8223 64H91.8262L88.668 55.4688H89.8926L92.3184 62.5059ZM96.4082 60.7715C96.4082 60.1504 96.5293 59.5918 96.7715 59.0957C97.0176 58.5996 97.3574 58.2168 97.791 57.9473C98.2285 57.6777 98.7266 57.543 99.2852 57.543C100.148 57.543 100.846 57.8418 101.377 58.4395C101.912 59.0371 102.18 59.832 102.18 60.8242V60.9004C102.18 61.5176 102.061 62.0723 101.822 62.5645C101.588 63.0527 101.25 63.4336 100.809 63.707C100.371 63.9805 99.8672 64.1172 99.2969 64.1172C98.4375 64.1172 97.7402 63.8184 97.2051 63.2207C96.6738 62.623 96.4082 61.832 96.4082 60.8477V60.7715ZM97.498 60.9004C97.498 61.6035 97.6602 62.168 97.9844 62.5938C98.3125 63.0195 98.75 63.2324 99.2969 63.2324C99.8477 63.2324 100.285 63.0176 100.609 62.5879C100.934 62.1543 101.096 61.5488 101.096 60.7715C101.096 60.0762 100.93 59.5137 100.598 59.084C100.27 58.6504 99.832 58.4336 99.2852 58.4336C98.75 58.4336 98.3184 58.6465 97.9902 59.0723C97.6621 59.498 97.498 60.1074 97.498 60.9004ZM104.717 64H103.633V57.6602H104.717V64ZM103.545 55.9785C103.545 55.8027 103.598 55.6543 103.703 55.5332C103.812 55.4121 103.973 55.3516 104.184 55.3516C104.395 55.3516 104.555 55.4121 104.664 55.5332C104.773 55.6543 104.828 55.8027 104.828 55.9785C104.828 56.1543 104.773 56.3008 104.664 56.418C104.555 56.5352 104.395 56.5938 104.184 56.5938C103.973 56.5938 103.812 56.5352 103.703 56.418C103.598 56.3008 103.545 56.1543 103.545 55.9785ZM106.193 60.7773C106.193 59.8047 106.424 59.0234 106.885 58.4336C107.346 57.8398 107.949 57.543 108.695 57.543C109.438 57.543 110.025 57.7969 110.459 58.3047V55H111.543V64H110.547L110.494 63.3203C110.061 63.8516 109.457 64.1172 108.684 64.1172C107.949 64.1172 107.35 63.8164 106.885 63.2148C106.424 62.6133 106.193 61.8281 106.193 60.8594V60.7773ZM107.277 60.9004C107.277 61.6191 107.426 62.1816 107.723 62.5879C108.02 62.9941 108.43 63.1973 108.953 63.1973C109.641 63.1973 110.143 62.8887 110.459 62.2715V59.3594C110.135 58.7617 109.637 58.4629 108.965 58.4629C108.434 58.4629 108.02 58.668 107.723 59.0781C107.426 59.4883 107.277 60.0957 107.277 60.9004ZM119.898 62.3184C119.898 62.0254 119.787 61.7988 119.564 61.6387C119.346 61.4746 118.961 61.334 118.41 61.2168C117.863 61.0996 117.428 60.959 117.104 60.7949C116.783 60.6309 116.545 60.4355 116.389 60.209C116.236 59.9824 116.16 59.7129 116.16 59.4004C116.16 58.8809 116.379 58.4414 116.816 58.082C117.258 57.7227 117.82 57.543 118.504 57.543C119.223 57.543 119.805 57.7285 120.25 58.0996C120.699 58.4707 120.924 58.9453 120.924 59.5234H119.834C119.834 59.2266 119.707 58.9707 119.453 58.7559C119.203 58.541 118.887 58.4336 118.504 58.4336C118.109 58.4336 117.801 58.5195 117.578 58.6914C117.355 58.8633 117.244 59.0879 117.244 59.3652C117.244 59.627 117.348 59.8242 117.555 59.957C117.762 60.0898 118.135 60.2168 118.674 60.3379C119.217 60.459 119.656 60.6035 119.992 60.7715C120.328 60.9395 120.576 61.1426 120.736 61.3809C120.9 61.6152 120.982 61.9023 120.982 62.2422C120.982 62.8086 120.756 63.2637 120.303 63.6074C119.85 63.9473 119.262 64.1172 118.539 64.1172C118.031 64.1172 117.582 64.0273 117.191 63.8477C116.801 63.668 116.494 63.418 116.271 63.0977C116.053 62.7734 115.943 62.4238 115.943 62.0488H117.027C117.047 62.4121 117.191 62.7012 117.461 62.916C117.734 63.127 118.094 63.2324 118.539 63.2324C118.949 63.2324 119.277 63.1504 119.523 62.9863C119.773 62.8184 119.898 62.5957 119.898 62.3184ZM125.025 64.1172C124.166 64.1172 123.467 63.8359 122.928 63.2734C122.389 62.707 122.119 61.9512 122.119 61.0059V60.8066C122.119 60.1777 122.238 59.6172 122.477 59.125C122.719 58.6289 123.055 58.2422 123.484 57.9648C123.918 57.6836 124.387 57.543 124.891 57.543C125.715 57.543 126.355 57.8145 126.812 58.3574C127.27 58.9004 127.498 59.6777 127.498 60.6895V61.1406H123.203C123.219 61.7656 123.4 62.2715 123.748 62.6582C124.1 63.041 124.545 63.2324 125.084 63.2324C125.467 63.2324 125.791 63.1543 126.057 62.998C126.322 62.8418 126.555 62.6348 126.754 62.377L127.416 62.8926C126.885 63.709 126.088 64.1172 125.025 64.1172ZM124.891 58.4336C124.453 58.4336 124.086 58.5938 123.789 58.9141C123.492 59.2305 123.309 59.6758 123.238 60.25H126.414V60.168C126.383 59.6172 126.234 59.1914 125.969 58.8906C125.703 58.5859 125.344 58.4336 124.891 58.4336ZM130.229 56.125V57.6602H131.412V58.498H130.229V62.4297C130.229 62.6836 130.281 62.875 130.387 63.0039C130.492 63.1289 130.672 63.1914 130.926 63.1914C131.051 63.1914 131.223 63.168 131.441 63.1211V64C131.156 64.0781 130.879 64.1172 130.609 64.1172C130.125 64.1172 129.76 63.9707 129.514 63.6777C129.268 63.3848 129.145 62.9688 129.145 62.4297V58.498H127.99V57.6602H129.145V56.125H130.229ZM136.598 63.373C136.176 63.8691 135.557 64.1172 134.74 64.1172C134.064 64.1172 133.549 63.9219 133.193 63.5312C132.842 63.1367 132.664 62.5547 132.66 61.7852V57.6602H133.744V61.7559C133.744 62.7168 134.135 63.1973 134.916 63.1973C135.744 63.1973 136.295 62.8887 136.568 62.2715V57.6602H137.652V64H136.621L136.598 63.373ZM144.66 60.9004C144.66 61.8652 144.439 62.6426 143.998 63.2324C143.557 63.8223 142.959 64.1172 142.205 64.1172C141.436 64.1172 140.83 63.873 140.389 63.3848V66.4375H139.305V57.6602H140.295L140.348 58.3633C140.789 57.8164 141.402 57.543 142.188 57.543C142.949 57.543 143.551 57.8301 143.992 58.4043C144.438 58.9785 144.66 59.7773 144.66 60.8008V60.9004ZM143.576 60.7773C143.576 60.0625 143.424 59.498 143.119 59.084C142.814 58.6699 142.396 58.4629 141.865 58.4629C141.209 58.4629 140.717 58.7539 140.389 59.3359V62.3652C140.713 62.9434 141.209 63.2324 141.877 63.2324C142.396 63.2324 142.809 63.0273 143.113 62.6172C143.422 62.2031 143.576 61.5898 143.576 60.7773ZM146.002 60.5371C146.002 59.6543 146.119 58.8066 146.354 57.9941C146.592 57.1816 146.945 56.4434 147.414 55.7793C147.883 55.1152 148.369 54.6465 148.873 54.373L149.096 55.0879C148.525 55.5254 148.057 56.1934 147.689 57.0918C147.326 57.9902 147.127 58.9961 147.092 60.1094L147.086 60.6074C147.086 62.1152 147.361 63.4238 147.912 64.5332C148.244 65.1973 148.639 65.7168 149.096 66.0918L148.873 66.7539C148.354 66.4648 147.857 65.9805 147.385 65.3008C146.463 63.9727 146.002 62.3848 146.002 60.5371ZM152.646 60.5957C152.646 61.4668 152.531 62.3027 152.301 63.1035C152.074 63.9004 151.725 64.6367 151.252 65.3125C150.783 65.9883 150.291 66.4688 149.775 66.7539L149.547 66.0918C150.148 65.6309 150.631 64.916 150.994 63.9473C151.361 62.9746 151.549 61.8965 151.557 60.7129V60.5254C151.557 59.7051 151.471 58.9434 151.299 58.2402C151.127 57.5332 150.887 56.9004 150.578 56.3418C150.273 55.7832 149.93 55.3477 149.547 55.0352L149.775 54.373C150.291 54.6582 150.781 55.1348 151.246 55.8027C151.715 56.4707 152.064 57.207 152.295 58.0117C152.529 58.8164 152.646 59.6777 152.646 60.5957Z" fill="black"/>
</svg>
